%TF.GenerationSoftware,KiCad,Pcbnew,9.0.5*%
%TF.CreationDate,2025-12-10T09:47:07-03:00*%
%TF.ProjectId,Estacao_I2C_v2,45737461-6361-46f5-9f49-32435f76322e,rev?*%
%TF.SameCoordinates,Original*%
%TF.FileFunction,Copper,L1,Top*%
%TF.FilePolarity,Positive*%
%FSLAX46Y46*%
G04 Gerber Fmt 4.6, Leading zero omitted, Abs format (unit mm)*
G04 Created by KiCad (PCBNEW 9.0.5) date 2025-12-10 09:47:07*
%MOMM*%
%LPD*%
G01*
G04 APERTURE LIST*
G04 Aperture macros list*
%AMRoundRect*
0 Rectangle with rounded corners*
0 $1 Rounding radius*
0 $2 $3 $4 $5 $6 $7 $8 $9 X,Y pos of 4 corners*
0 Add a 4 corners polygon primitive as box body*
4,1,4,$2,$3,$4,$5,$6,$7,$8,$9,$2,$3,0*
0 Add four circle primitives for the rounded corners*
1,1,$1+$1,$2,$3*
1,1,$1+$1,$4,$5*
1,1,$1+$1,$6,$7*
1,1,$1+$1,$8,$9*
0 Add four rect primitives between the rounded corners*
20,1,$1+$1,$2,$3,$4,$5,0*
20,1,$1+$1,$4,$5,$6,$7,0*
20,1,$1+$1,$6,$7,$8,$9,0*
20,1,$1+$1,$8,$9,$2,$3,0*%
G04 Aperture macros list end*
%TA.AperFunction,ComponentPad*%
%ADD10R,1.700000X1.700000*%
%TD*%
%TA.AperFunction,ComponentPad*%
%ADD11C,1.700000*%
%TD*%
%TA.AperFunction,ComponentPad*%
%ADD12R,1.070000X1.800000*%
%TD*%
%TA.AperFunction,ComponentPad*%
%ADD13O,1.070000X1.800000*%
%TD*%
%TA.AperFunction,SMDPad,CuDef*%
%ADD14RoundRect,0.250000X0.475000X-0.250000X0.475000X0.250000X-0.475000X0.250000X-0.475000X-0.250000X0*%
%TD*%
%TA.AperFunction,SMDPad,CuDef*%
%ADD15RoundRect,0.250000X-0.262500X-0.450000X0.262500X-0.450000X0.262500X0.450000X-0.262500X0.450000X0*%
%TD*%
%TA.AperFunction,SMDPad,CuDef*%
%ADD16RoundRect,0.250000X-0.550000X1.500000X-0.550000X-1.500000X0.550000X-1.500000X0.550000X1.500000X0*%
%TD*%
%TA.AperFunction,SMDPad,CuDef*%
%ADD17RoundRect,0.375000X0.375000X-0.625000X0.375000X0.625000X-0.375000X0.625000X-0.375000X-0.625000X0*%
%TD*%
%TA.AperFunction,SMDPad,CuDef*%
%ADD18RoundRect,0.500000X1.400000X-0.500000X1.400000X0.500000X-1.400000X0.500000X-1.400000X-0.500000X0*%
%TD*%
%TA.AperFunction,SMDPad,CuDef*%
%ADD19R,1.500000X0.900000*%
%TD*%
%TA.AperFunction,SMDPad,CuDef*%
%ADD20R,0.900000X1.500000*%
%TD*%
%TA.AperFunction,SMDPad,CuDef*%
%ADD21R,0.900000X0.900000*%
%TD*%
%TA.AperFunction,HeatsinkPad*%
%ADD22C,0.600000*%
%TD*%
%TA.AperFunction,HeatsinkPad*%
%ADD23R,3.800000X3.800000*%
%TD*%
%TA.AperFunction,SMDPad,CuDef*%
%ADD24RoundRect,0.250000X0.262500X0.450000X-0.262500X0.450000X-0.262500X-0.450000X0.262500X-0.450000X0*%
%TD*%
%TA.AperFunction,ComponentPad*%
%ADD25C,2.000000*%
%TD*%
%TA.AperFunction,SMDPad,CuDef*%
%ADD26RoundRect,0.250000X-0.475000X0.250000X-0.475000X-0.250000X0.475000X-0.250000X0.475000X0.250000X0*%
%TD*%
%TA.AperFunction,SMDPad,CuDef*%
%ADD27R,1.350000X0.400000*%
%TD*%
%TA.AperFunction,HeatsinkPad*%
%ADD28O,1.900000X1.200000*%
%TD*%
%TA.AperFunction,SMDPad,CuDef*%
%ADD29R,1.900000X1.200000*%
%TD*%
%TA.AperFunction,HeatsinkPad*%
%ADD30C,1.450000*%
%TD*%
%TA.AperFunction,SMDPad,CuDef*%
%ADD31R,1.900000X1.500000*%
%TD*%
%TA.AperFunction,ViaPad*%
%ADD32C,0.800000*%
%TD*%
%TA.AperFunction,ViaPad*%
%ADD33C,0.600000*%
%TD*%
%TA.AperFunction,Conductor*%
%ADD34C,0.500000*%
%TD*%
%TA.AperFunction,Conductor*%
%ADD35C,0.399800*%
%TD*%
%TA.AperFunction,Conductor*%
%ADD36C,0.250000*%
%TD*%
G04 APERTURE END LIST*
D10*
%TO.P,J3,1,Pin_1*%
%TO.N,+5V*%
X177800000Y-113030000D03*
D11*
%TO.P,J3,2,Pin_2*%
%TO.N,GND*%
X177800000Y-115570000D03*
%TO.P,J3,3,Pin_3*%
%TO.N,Net-(J3-Pin_3)*%
X177800000Y-118110000D03*
%TO.P,J3,4,Pin_4*%
%TO.N,Net-(J3-Pin_4)*%
X177800000Y-120650000D03*
%TD*%
D12*
%TO.P,D1,1,RA*%
%TO.N,Net-(D1-RA)*%
X182245000Y-118110000D03*
D13*
%TO.P,D1,2,BA*%
%TO.N,Net-(D1-BA)*%
X183515000Y-118110000D03*
%TO.P,D1,3,GA*%
%TO.N,Net-(D1-GA)*%
X184785000Y-118110000D03*
%TO.P,D1,4,K*%
%TO.N,GND*%
X186055000Y-118110000D03*
%TD*%
D14*
%TO.P,C2,1*%
%TO.N,+3.3V*%
X158115000Y-92390000D03*
%TO.P,C2,2*%
%TO.N,GND*%
X158115000Y-90490000D03*
%TD*%
D15*
%TO.P,R4,1*%
%TO.N,Net-(D1-RA)*%
X181690000Y-91440000D03*
%TO.P,R4,2*%
%TO.N,Net-(U1-IO25)*%
X183515000Y-91440000D03*
%TD*%
D16*
%TO.P,C4,1*%
%TO.N,+3.3V*%
X151005000Y-113665000D03*
%TO.P,C4,2*%
%TO.N,GND*%
X151005000Y-119265000D03*
%TD*%
D17*
%TO.P,U2,1,GND*%
%TO.N,GND*%
X148830000Y-107900000D03*
%TO.P,U2,2,VO*%
%TO.N,+3.3V*%
X151130000Y-107900000D03*
D18*
X151130000Y-101600000D03*
D17*
%TO.P,U2,3,VI*%
%TO.N,+5V*%
X153430000Y-107900000D03*
%TD*%
D19*
%TO.P,U1,1,GND*%
%TO.N,GND*%
X161925000Y-89535000D03*
%TO.P,U1,2,VDD*%
%TO.N,+3.3V*%
X161925000Y-90805000D03*
%TO.P,U1,3,EN*%
%TO.N,Net-(U1-EN)*%
X161925000Y-92075000D03*
%TO.P,U1,4,SENSOR_VP*%
%TO.N,unconnected-(U1-SENSOR_VP-Pad4)*%
X161925000Y-93345000D03*
%TO.P,U1,5,SENSOR_VN*%
%TO.N,unconnected-(U1-SENSOR_VN-Pad5)*%
X161925000Y-94615000D03*
%TO.P,U1,6,IO34*%
%TO.N,unconnected-(U1-IO34-Pad6)*%
X161925000Y-95885000D03*
%TO.P,U1,7,IO35*%
%TO.N,unconnected-(U1-IO35-Pad7)*%
X161925000Y-97155000D03*
%TO.P,U1,8,IO32*%
%TO.N,unconnected-(U1-IO32-Pad8)*%
X161925000Y-98425000D03*
%TO.P,U1,9,IO33*%
%TO.N,unconnected-(U1-IO33-Pad9)*%
X161925000Y-99695000D03*
%TO.P,U1,10,IO25*%
%TO.N,Net-(U1-IO25)*%
X161925000Y-100965000D03*
%TO.P,U1,11,IO26*%
%TO.N,Net-(U1-IO26)*%
X161925000Y-102235000D03*
%TO.P,U1,12,IO27*%
%TO.N,Net-(U1-IO27)*%
X161925000Y-103505000D03*
%TO.P,U1,13,IO14*%
%TO.N,unconnected-(U1-IO14-Pad13)*%
X161925000Y-104775000D03*
%TO.P,U1,14,IO12*%
%TO.N,unconnected-(U1-IO12-Pad14)*%
X161925000Y-106045000D03*
D20*
%TO.P,U1,15,GND*%
%TO.N,GND*%
X164965000Y-107295000D03*
%TO.P,U1,16,IO13*%
%TO.N,unconnected-(U1-IO13-Pad16)*%
X166235000Y-107295000D03*
%TO.P,U1,17,NC*%
%TO.N,unconnected-(U1-NC-Pad17)*%
X167505000Y-107295000D03*
%TO.P,U1,18,NC*%
%TO.N,unconnected-(U1-NC-Pad18)*%
X168775000Y-107295000D03*
%TO.P,U1,19,NC*%
%TO.N,unconnected-(U1-NC-Pad19)*%
X170045000Y-107295000D03*
%TO.P,U1,20,NC*%
%TO.N,unconnected-(U1-NC-Pad20)*%
X171315000Y-107295000D03*
%TO.P,U1,21,NC*%
%TO.N,unconnected-(U1-NC-Pad21)*%
X172585000Y-107295000D03*
%TO.P,U1,22,NC*%
%TO.N,unconnected-(U1-NC-Pad22)*%
X173855000Y-107295000D03*
%TO.P,U1,23,IO15*%
%TO.N,unconnected-(U1-IO15-Pad23)*%
X175125000Y-107295000D03*
%TO.P,U1,24,IO2*%
%TO.N,Net-(U1-IO2)*%
X176395000Y-107295000D03*
D19*
%TO.P,U1,25,IO0*%
%TO.N,Net-(U1-IO0)*%
X179425000Y-106045000D03*
%TO.P,U1,26,IO4*%
%TO.N,unconnected-(U1-IO4-Pad26)*%
X179425000Y-104775000D03*
%TO.P,U1,27,IO16*%
%TO.N,unconnected-(U1-IO16-Pad27)*%
X179425000Y-103505000D03*
%TO.P,U1,28,IO17*%
%TO.N,unconnected-(U1-IO17-Pad28)*%
X179425000Y-102235000D03*
%TO.P,U1,29,IO5*%
%TO.N,unconnected-(U1-IO5-Pad29)*%
X179425000Y-100965000D03*
%TO.P,U1,30,IO18*%
%TO.N,unconnected-(U1-IO18-Pad30)*%
X179425000Y-99695000D03*
%TO.P,U1,31,IO19*%
%TO.N,unconnected-(U1-IO19-Pad31)*%
X179425000Y-98425000D03*
%TO.P,U1,32,NC*%
%TO.N,unconnected-(U1-NC-Pad32)*%
X179425000Y-97155000D03*
%TO.P,U1,33,IO21*%
%TO.N,Net-(J3-Pin_3)*%
X179425000Y-95885000D03*
%TO.P,U1,34,RXD0/IO3*%
%TO.N,Net-(J2-Pin_4)*%
X179425000Y-94615000D03*
%TO.P,U1,35,TXD0/IO1*%
%TO.N,Net-(J2-Pin_5)*%
X179425000Y-93345000D03*
%TO.P,U1,36,IO22*%
%TO.N,Net-(J3-Pin_4)*%
X179425000Y-92075000D03*
%TO.P,U1,37,IO23*%
%TO.N,unconnected-(U1-IO23-Pad37)*%
X179425000Y-90805000D03*
%TO.P,U1,38,GND*%
%TO.N,GND*%
X179425000Y-89535000D03*
D21*
%TO.P,U1,39,GND*%
X167775000Y-95855000D03*
D22*
X167775000Y-96555000D03*
D21*
X167775000Y-97255000D03*
D22*
X167775000Y-97955000D03*
D21*
X167775000Y-98655000D03*
D22*
X168475000Y-95855000D03*
X168475000Y-97255000D03*
X168475000Y-98655000D03*
X169150000Y-96555000D03*
X169150000Y-97955000D03*
D21*
X169175000Y-95855000D03*
X169175000Y-97255000D03*
D23*
X169175000Y-97255000D03*
D21*
X169175000Y-98655000D03*
D22*
X169875000Y-95855000D03*
X169875000Y-97255000D03*
X169875000Y-98655000D03*
D21*
X170575000Y-95855000D03*
D22*
X170575000Y-96555000D03*
D21*
X170575000Y-97255000D03*
D22*
X170575000Y-97955000D03*
D21*
X170575000Y-98655000D03*
%TD*%
D15*
%TO.P,R6,1*%
%TO.N,Net-(U1-IO27)*%
X181690000Y-104775000D03*
%TO.P,R6,2*%
%TO.N,Net-(D1-BA)*%
X183515000Y-104775000D03*
%TD*%
D24*
%TO.P,R3,1*%
%TO.N,+3.3V*%
X183515000Y-97790000D03*
%TO.P,R3,2*%
%TO.N,Net-(U1-IO2)*%
X181690000Y-97790000D03*
%TD*%
%TO.P,R2,1*%
%TO.N,+3.3V*%
X183515000Y-100965000D03*
%TO.P,R2,2*%
%TO.N,Net-(U1-IO0)*%
X181690000Y-100965000D03*
%TD*%
D15*
%TO.P,R5,1*%
%TO.N,Net-(D1-GA)*%
X181690000Y-94615000D03*
%TO.P,R5,2*%
%TO.N,Net-(U1-IO26)*%
X183515000Y-94615000D03*
%TD*%
D25*
%TO.P,SW1,1,1*%
%TO.N,Net-(U1-EN)*%
X164465000Y-113665000D03*
X164465000Y-120165000D03*
%TO.P,SW1,2,2*%
%TO.N,GND*%
X159965000Y-113665000D03*
X159965000Y-120165000D03*
%TD*%
D26*
%TO.P,C1,1*%
%TO.N,+5V*%
X158750000Y-103190000D03*
%TO.P,C1,2*%
%TO.N,GND*%
X158750000Y-105090000D03*
%TD*%
D27*
%TO.P,J1,1,VBUS*%
%TO.N,+5V*%
X152557500Y-92640000D03*
%TO.P,J1,2,D-*%
%TO.N,unconnected-(J1-D--Pad2)*%
X152557500Y-93290000D03*
%TO.P,J1,3,D+*%
%TO.N,unconnected-(J1-D+-Pad3)*%
X152557500Y-93940000D03*
%TO.P,J1,4,ID*%
%TO.N,unconnected-(J1-ID-Pad4)*%
X152557500Y-94590000D03*
%TO.P,J1,5,GND*%
%TO.N,GND*%
X152557500Y-95240000D03*
D28*
%TO.P,J1,6,Shield*%
%TO.N,unconnected-(J1-Shield-Pad6)_1*%
X149857500Y-90440000D03*
D29*
%TO.N,unconnected-(J1-Shield-Pad6)_5*%
X149857500Y-91040000D03*
D30*
%TO.N,unconnected-(J1-Shield-Pad6)_4*%
X152557500Y-91440000D03*
D31*
%TO.N,unconnected-(J1-Shield-Pad6)_7*%
X149857500Y-92940000D03*
%TO.N,unconnected-(J1-Shield-Pad6)_6*%
X149857500Y-94940000D03*
D30*
%TO.N,unconnected-(J1-Shield-Pad6)_2*%
X152557500Y-96440000D03*
D29*
%TO.N,unconnected-(J1-Shield-Pad6)_3*%
X149857500Y-96840000D03*
D28*
%TO.N,unconnected-(J1-Shield-Pad6)*%
X149857500Y-97440000D03*
%TD*%
D25*
%TO.P,SW2,1,1*%
%TO.N,GND*%
X173355000Y-113665000D03*
X173355000Y-120165000D03*
%TO.P,SW2,2,2*%
%TO.N,Net-(U1-IO0)*%
X168855000Y-113665000D03*
X168855000Y-120165000D03*
%TD*%
D10*
%TO.P,J4,1,Pin_1*%
%TO.N,+5V*%
X190500000Y-113030000D03*
D11*
%TO.P,J4,2,Pin_2*%
%TO.N,GND*%
X190500000Y-115570000D03*
%TO.P,J4,3,Pin_3*%
%TO.N,Net-(J3-Pin_3)*%
X190500000Y-118110000D03*
%TO.P,J4,4,Pin_4*%
%TO.N,Net-(J3-Pin_4)*%
X190500000Y-120650000D03*
%TD*%
D15*
%TO.P,R1,1*%
%TO.N,+3.3V*%
X157837500Y-95885000D03*
%TO.P,R1,2*%
%TO.N,Net-(U1-EN)*%
X159662500Y-95885000D03*
%TD*%
D10*
%TO.P,J2,1,Pin_1*%
%TO.N,GND*%
X190500000Y-106680000D03*
D11*
%TO.P,J2,2,Pin_2*%
%TO.N,unconnected-(J2-Pin_2-Pad2)*%
X190500000Y-104140000D03*
%TO.P,J2,3,Pin_3*%
%TO.N,+5V*%
X190500000Y-101600000D03*
%TO.P,J2,4,Pin_4*%
%TO.N,Net-(J2-Pin_4)*%
X190500000Y-99060000D03*
%TO.P,J2,5,Pin_5*%
%TO.N,Net-(J2-Pin_5)*%
X190500000Y-96520000D03*
%TO.P,J2,6,Pin_6*%
%TO.N,unconnected-(J2-Pin_6-Pad6)*%
X190500000Y-93980000D03*
%TD*%
D32*
%TO.N,+5V*%
X155796100Y-93581300D03*
X158656400Y-101861800D03*
%TO.N,GND*%
X165380100Y-112393800D03*
X165683600Y-105517500D03*
D33*
%TO.N,+3.3V*%
X164377000Y-91152800D03*
X163599400Y-108903500D03*
%TO.N,Net-(J3-Pin_3)*%
X180777700Y-98935200D03*
%TO.N,Net-(J3-Pin_4)*%
X177800950Y-93980000D03*
%TO.N,Net-(U1-EN)*%
X164377000Y-93581300D03*
%TO.N,Net-(U1-IO0)*%
X175909000Y-104429000D03*
%TO.N,Net-(D1-BA)*%
X184785000Y-106754945D03*
%TO.N,Net-(D1-GA)*%
X184928900Y-95525600D03*
%TO.N,Net-(D1-RA)*%
X181644500Y-93027500D03*
%TO.N,Net-(U1-IO25)*%
X181644500Y-89979700D03*
X177002100Y-99856350D03*
%TO.N,Net-(U1-IO26)*%
X182611700Y-95489300D03*
X177002100Y-102665000D03*
%TD*%
D34*
%TO.N,+5V*%
X153297500Y-92421100D02*
X154457700Y-93581300D01*
X158656400Y-101861800D02*
X158750000Y-101955400D01*
X177800000Y-113030000D02*
X176568300Y-113030000D01*
X154952700Y-109422700D02*
X154952700Y-106987300D01*
X158750000Y-101955400D02*
X158750000Y-103190000D01*
X158750000Y-101955400D02*
X158656400Y-101861800D01*
X190500000Y-113030000D02*
X177800000Y-113030000D01*
X157142100Y-111612100D02*
X154952700Y-109422700D01*
D35*
X153297500Y-92421100D02*
X153078600Y-92640000D01*
D34*
X175150400Y-111612100D02*
X157142100Y-111612100D01*
X158656400Y-101861800D02*
X158750000Y-101955400D01*
X154952700Y-109422700D02*
X153430000Y-107900000D01*
X154457700Y-93581300D02*
X155796100Y-93581300D01*
D35*
X153078600Y-92640000D02*
X152780300Y-92640000D01*
D34*
X154952700Y-106987300D02*
X158750000Y-103190000D01*
X152557500Y-92640000D02*
X152780300Y-92640000D01*
X176568300Y-113030000D02*
X175150400Y-111612100D01*
%TO.N,GND*%
X156821900Y-91783100D02*
X158115000Y-90490000D01*
X171973300Y-112283300D02*
X165380100Y-112283300D01*
X177800000Y-115570000D02*
X175895000Y-113665000D01*
X170720000Y-99085000D02*
X170020000Y-99085000D01*
X169320000Y-96285000D02*
X170020000Y-96285000D01*
X186055000Y-118110000D02*
X186055000Y-116828300D01*
X187960000Y-118110000D02*
X186055000Y-118110000D01*
X169320000Y-89965000D02*
X169320000Y-96285000D01*
X173355000Y-113665000D02*
X171973300Y-112283300D01*
X165380100Y-112283300D02*
X165380100Y-112393800D01*
X170720000Y-98385000D02*
X169295000Y-98385000D01*
X169295000Y-96985000D02*
X167920000Y-96985000D01*
X170020000Y-97685000D02*
X170720000Y-97685000D01*
X165110000Y-106594800D02*
X165110000Y-106593300D01*
X179058300Y-116828300D02*
X177800000Y-115570000D01*
X186055000Y-116828300D02*
X179058300Y-116828300D01*
X165110000Y-107725000D02*
X165110000Y-106751600D01*
X165110000Y-106594800D02*
X165683600Y-106021200D01*
X152557500Y-95240000D02*
X152780300Y-95240000D01*
X158640000Y-89965000D02*
X162070000Y-89965000D01*
X151005000Y-119265000D02*
X159065000Y-119265000D01*
X170720000Y-96285000D02*
X170020000Y-96285000D01*
X190500000Y-115570000D02*
X187960000Y-118110000D01*
X167920000Y-97685000D02*
X168620000Y-97685000D01*
X163708300Y-107371300D02*
X161031300Y-107371300D01*
X169320000Y-99085000D02*
X170020000Y-99085000D01*
X161346700Y-112283300D02*
X159965000Y-113665000D01*
X165380100Y-112283300D02*
X161346700Y-112283300D01*
X179570000Y-89965000D02*
X169320000Y-89965000D01*
X175895000Y-113665000D02*
X173355000Y-113665000D01*
X169320000Y-89965000D02*
X162070000Y-89965000D01*
X169320000Y-97685000D02*
X170020000Y-97685000D01*
D35*
X153612700Y-95170200D02*
X152850100Y-95170200D01*
D34*
X156821900Y-93678100D02*
X156821900Y-91783100D01*
X165683600Y-106021200D02*
X165683600Y-105517500D01*
X164486300Y-106593300D02*
X163708300Y-107371300D01*
X158115000Y-90490000D02*
X158640000Y-89965000D01*
X169295000Y-98385000D02*
X167920000Y-98385000D01*
X165110000Y-106751600D02*
X165110000Y-106594800D01*
X167920000Y-96285000D02*
X168620000Y-96285000D01*
X159065000Y-119265000D02*
X159965000Y-120165000D01*
X148830000Y-107900000D02*
X154595000Y-113665000D01*
D35*
X152850100Y-95170200D02*
X152780300Y-95240000D01*
D34*
X154595000Y-113665000D02*
X159965000Y-113665000D01*
X153612700Y-95170200D02*
X155329800Y-95170200D01*
X165110000Y-106593300D02*
X164486300Y-106593300D01*
X155329800Y-95170200D02*
X156821900Y-93678100D01*
X161031300Y-107371300D02*
X158750000Y-105090000D01*
X167920000Y-99085000D02*
X168620000Y-99085000D01*
D36*
%TO.N,+3.3V*%
X183515000Y-97790000D02*
X183515000Y-100965000D01*
X163158900Y-91152800D02*
X163076700Y-91235000D01*
X162070000Y-91235000D02*
X159270000Y-91235000D01*
X152122500Y-101600000D02*
X151130000Y-101600000D01*
X147777800Y-107002900D02*
X148175500Y-106605200D01*
X182880000Y-109855000D02*
X164550900Y-109855000D01*
X159270000Y-91235000D02*
X158115000Y-92390000D01*
X158115000Y-95607500D02*
X157837500Y-95885000D01*
X151130000Y-105310400D02*
X149835200Y-106605200D01*
X185420000Y-102870000D02*
X185420000Y-107315000D01*
X183515000Y-100965000D02*
X185420000Y-102870000D01*
X149835200Y-106605200D02*
X151130000Y-107900000D01*
X164377000Y-91152800D02*
X163158900Y-91152800D01*
X162070000Y-91235000D02*
X163076700Y-91235000D01*
X147777800Y-110437800D02*
X147777800Y-107002900D01*
X148175500Y-106605200D02*
X149835200Y-106605200D01*
X158115000Y-92390000D02*
X158115000Y-95607500D01*
X151130000Y-101600000D02*
X151130000Y-105310400D01*
X164550900Y-109855000D02*
X163599400Y-108903500D01*
X185420000Y-107315000D02*
X182880000Y-109855000D01*
X151005000Y-113665000D02*
X147777800Y-110437800D01*
X157837500Y-95885000D02*
X152122500Y-101600000D01*
%TO.N,Net-(J2-Pin_4)*%
X187544300Y-96104300D02*
X190500000Y-99060000D01*
X180576700Y-95045000D02*
X181636000Y-96104300D01*
X181636000Y-96104300D02*
X187544300Y-96104300D01*
X179570000Y-95045000D02*
X180576700Y-95045000D01*
%TO.N,Net-(J2-Pin_5)*%
X179570000Y-93775000D02*
X180576700Y-93775000D01*
X187219100Y-93239100D02*
X182278800Y-93239100D01*
X182278800Y-93239100D02*
X181897100Y-93620800D01*
X180730900Y-93620800D02*
X180576700Y-93775000D01*
X181897100Y-93620800D02*
X180730900Y-93620800D01*
X190500000Y-96520000D02*
X187219100Y-93239100D01*
%TO.N,Net-(J3-Pin_3)*%
X189334200Y-119275800D02*
X178965800Y-119275800D01*
X180576700Y-98734200D02*
X180777700Y-98935200D01*
X180576700Y-96315000D02*
X180576700Y-98734200D01*
X190500000Y-118110000D02*
X189334200Y-119275800D01*
X178965800Y-119275800D02*
X177800000Y-118110000D01*
X179570000Y-96315000D02*
X180576700Y-96315000D01*
%TO.N,Net-(J3-Pin_4)*%
X178435000Y-92075000D02*
X177800000Y-92710000D01*
X179425000Y-92075000D02*
X178435000Y-92075000D01*
X177800000Y-92710000D02*
X177800950Y-92710950D01*
X190500000Y-120650000D02*
X177800000Y-120650000D01*
X177800950Y-92710950D02*
X177800950Y-93980000D01*
%TO.N,Net-(U1-EN)*%
X161662500Y-92505000D02*
X161063300Y-92505000D01*
X161662500Y-92505000D02*
X162070000Y-92505000D01*
X159662500Y-95885000D02*
X159662500Y-93905800D01*
X162070000Y-92505000D02*
X163300700Y-92505000D01*
X163300700Y-92505000D02*
X164377000Y-93581300D01*
X159662500Y-93905800D02*
X161063300Y-92505000D01*
%TO.N,Net-(U1-IO0)*%
X175909000Y-104429000D02*
X177955000Y-106475000D01*
X181690000Y-100965000D02*
X180576700Y-102078300D01*
X180576700Y-102078300D02*
X180576700Y-106475000D01*
X177955000Y-106475000D02*
X179570000Y-106475000D01*
X179570000Y-106475000D02*
X180576700Y-106475000D01*
%TO.N,Net-(U1-IO2)*%
X182475500Y-105768000D02*
X180518500Y-107725000D01*
X182475500Y-98575500D02*
X182475500Y-105768000D01*
X181690000Y-97790000D02*
X182475500Y-98575500D01*
X180518500Y-107725000D02*
X176540000Y-107725000D01*
%TO.N,Net-(D1-BA)*%
X183364800Y-104925200D02*
X183515000Y-104775000D01*
X184785000Y-105410000D02*
X184300200Y-104925200D01*
X184300200Y-104925200D02*
X183364800Y-104925200D01*
X184785000Y-106754945D02*
X184785000Y-105410000D01*
%TO.N,Net-(D1-GA)*%
X184928800Y-94544000D02*
X184928800Y-95525600D01*
X182684200Y-93620800D02*
X184005600Y-93620800D01*
X184928800Y-95525600D02*
X184928900Y-95525600D01*
X184005600Y-93620800D02*
X184928800Y-94544000D01*
X181690000Y-94615000D02*
X182684200Y-93620800D01*
%TO.N,Net-(D1-RA)*%
X181644500Y-93027500D02*
X181690000Y-92982000D01*
X181690000Y-92982000D02*
X181690000Y-91440000D01*
%TO.N,Net-(U1-IO25)*%
X182054700Y-89979700D02*
X181644500Y-89979700D01*
X177002100Y-99856350D02*
X176691350Y-99856350D01*
X175582700Y-100965000D02*
X161925000Y-100965000D01*
X176691350Y-99856350D02*
X175582700Y-100965000D01*
X183515000Y-91440000D02*
X182054700Y-89979700D01*
%TO.N,Net-(U1-IO26)*%
X177002100Y-102665000D02*
X162070000Y-102665000D01*
X182640700Y-95489300D02*
X183515000Y-94615000D01*
X182611700Y-95489300D02*
X182640700Y-95489300D01*
%TO.N,Net-(U1-IO27)*%
X181690000Y-105935400D02*
X181690000Y-104775000D01*
X161925000Y-103505000D02*
X163195000Y-103505000D01*
X175467700Y-104775000D02*
X177875700Y-107183000D01*
X163195000Y-103505000D02*
X164465000Y-104775000D01*
X164465000Y-104775000D02*
X175467700Y-104775000D01*
X177875700Y-107183000D02*
X180442400Y-107183000D01*
X180442400Y-107183000D02*
X181690000Y-105935400D01*
%TD*%
%TA.AperFunction,Conductor*%
%TO.N,GND*%
G36*
X189092540Y-113800185D02*
G01*
X189138295Y-113852989D01*
X189149501Y-113904500D01*
X189149501Y-113927876D01*
X189155908Y-113987483D01*
X189206202Y-114122328D01*
X189206206Y-114122335D01*
X189292452Y-114237544D01*
X189292455Y-114237547D01*
X189407664Y-114323793D01*
X189407671Y-114323797D01*
X189452618Y-114340561D01*
X189542517Y-114374091D01*
X189602127Y-114380500D01*
X189612685Y-114380499D01*
X189679723Y-114400179D01*
X189700372Y-114416818D01*
X190370591Y-115087037D01*
X190307007Y-115104075D01*
X190192993Y-115169901D01*
X190099901Y-115262993D01*
X190034075Y-115377007D01*
X190017037Y-115440590D01*
X189384728Y-114808282D01*
X189384727Y-114808282D01*
X189345380Y-114862439D01*
X189248904Y-115051782D01*
X189183242Y-115253869D01*
X189183242Y-115253872D01*
X189150000Y-115463753D01*
X189150000Y-115676246D01*
X189183242Y-115886127D01*
X189183242Y-115886130D01*
X189248904Y-116088217D01*
X189345375Y-116277550D01*
X189384728Y-116331716D01*
X190017037Y-115699408D01*
X190034075Y-115762993D01*
X190099901Y-115877007D01*
X190192993Y-115970099D01*
X190307007Y-116035925D01*
X190370590Y-116052962D01*
X189738282Y-116685269D01*
X189738282Y-116685270D01*
X189792452Y-116724626D01*
X189792451Y-116724626D01*
X189801495Y-116729234D01*
X189852292Y-116777208D01*
X189869087Y-116845029D01*
X189846550Y-116911164D01*
X189801499Y-116950202D01*
X189792182Y-116954949D01*
X189620213Y-117079890D01*
X189469890Y-117230213D01*
X189344951Y-117402179D01*
X189248444Y-117591585D01*
X189182753Y-117793760D01*
X189149500Y-118003713D01*
X189149500Y-118216286D01*
X189182754Y-118426246D01*
X189182754Y-118426247D01*
X189187821Y-118441842D01*
X189188254Y-118457049D01*
X189193573Y-118471307D01*
X189189231Y-118491266D01*
X189189814Y-118511683D01*
X189181726Y-118525767D01*
X189178722Y-118539581D01*
X189157572Y-118567835D01*
X189111430Y-118613979D01*
X189050108Y-118647466D01*
X189023747Y-118650300D01*
X187214000Y-118650300D01*
X187146961Y-118630615D01*
X187101206Y-118577811D01*
X187090000Y-118526300D01*
X187090000Y-118360000D01*
X186430278Y-118360000D01*
X186474333Y-118283694D01*
X186505000Y-118169244D01*
X186505000Y-118050756D01*
X186474333Y-117936306D01*
X186430278Y-117860000D01*
X187090000Y-117860000D01*
X187090000Y-117643060D01*
X187089999Y-117643056D01*
X187050227Y-117443109D01*
X187050225Y-117443101D01*
X186972206Y-117254747D01*
X186972201Y-117254737D01*
X186858937Y-117085226D01*
X186858934Y-117085222D01*
X186714777Y-116941065D01*
X186714773Y-116941062D01*
X186545262Y-116827798D01*
X186545252Y-116827793D01*
X186356896Y-116749773D01*
X186356893Y-116749772D01*
X186305000Y-116739449D01*
X186305000Y-117734722D01*
X186228694Y-117690667D01*
X186114244Y-117660000D01*
X185995756Y-117660000D01*
X185881306Y-117690667D01*
X185820500Y-117725773D01*
X185820500Y-117643011D01*
X185820499Y-117643010D01*
X185807383Y-117577068D01*
X185805000Y-117552876D01*
X185805000Y-116739450D01*
X185804999Y-116739449D01*
X185753106Y-116749772D01*
X185753103Y-116749773D01*
X185564745Y-116827794D01*
X185489339Y-116878178D01*
X185422661Y-116899055D01*
X185355281Y-116880570D01*
X185351558Y-116878177D01*
X185301948Y-116845029D01*
X185275493Y-116827352D01*
X185275492Y-116827351D01*
X185275490Y-116827350D01*
X185087048Y-116749295D01*
X185087038Y-116749292D01*
X184886990Y-116709500D01*
X184886988Y-116709500D01*
X184683012Y-116709500D01*
X184683010Y-116709500D01*
X184482961Y-116749292D01*
X184482951Y-116749295D01*
X184294509Y-116827350D01*
X184218891Y-116877877D01*
X184152213Y-116898755D01*
X184084833Y-116880270D01*
X184081109Y-116877877D01*
X184031948Y-116845029D01*
X184005493Y-116827352D01*
X184005492Y-116827351D01*
X184005490Y-116827350D01*
X183817048Y-116749295D01*
X183817038Y-116749292D01*
X183616990Y-116709500D01*
X183616988Y-116709500D01*
X183413012Y-116709500D01*
X183413010Y-116709500D01*
X183212962Y-116749292D01*
X183212959Y-116749293D01*
X183212957Y-116749293D01*
X183212956Y-116749294D01*
X183167134Y-116768274D01*
X183140927Y-116779129D01*
X183071458Y-116786597D01*
X183030931Y-116768956D01*
X183030114Y-116770454D01*
X183022328Y-116766202D01*
X182887482Y-116715908D01*
X182887483Y-116715908D01*
X182827883Y-116709501D01*
X182827881Y-116709500D01*
X182827873Y-116709500D01*
X182827864Y-116709500D01*
X181662129Y-116709500D01*
X181662123Y-116709501D01*
X181602516Y-116715908D01*
X181467671Y-116766202D01*
X181467664Y-116766206D01*
X181352455Y-116852452D01*
X181352452Y-116852455D01*
X181266206Y-116967664D01*
X181266202Y-116967671D01*
X181215908Y-117102517D01*
X181209501Y-117162116D01*
X181209500Y-117162127D01*
X181209500Y-117860000D01*
X181209501Y-118526300D01*
X181189816Y-118593339D01*
X181137013Y-118639094D01*
X181085501Y-118650300D01*
X179276252Y-118650300D01*
X179246811Y-118641655D01*
X179216825Y-118635132D01*
X179211809Y-118631377D01*
X179209213Y-118630615D01*
X179188571Y-118613981D01*
X179142428Y-118567838D01*
X179108943Y-118506515D01*
X179112177Y-118441841D01*
X179117246Y-118426243D01*
X179150500Y-118216287D01*
X179150500Y-118003713D01*
X179117246Y-117793757D01*
X179051557Y-117591588D01*
X178955051Y-117402184D01*
X178955049Y-117402181D01*
X178955048Y-117402179D01*
X178830109Y-117230213D01*
X178679786Y-117079890D01*
X178507817Y-116954949D01*
X178498504Y-116950204D01*
X178447707Y-116902230D01*
X178430912Y-116834409D01*
X178453449Y-116768274D01*
X178498507Y-116729232D01*
X178507555Y-116724622D01*
X178561716Y-116685270D01*
X178561717Y-116685270D01*
X177929408Y-116052962D01*
X177992993Y-116035925D01*
X178107007Y-115970099D01*
X178200099Y-115877007D01*
X178265925Y-115762993D01*
X178282962Y-115699408D01*
X178915270Y-116331717D01*
X178915270Y-116331716D01*
X178954622Y-116277554D01*
X179051095Y-116088217D01*
X179116757Y-115886130D01*
X179116757Y-115886127D01*
X179150000Y-115676246D01*
X179150000Y-115463753D01*
X179116757Y-115253872D01*
X179116757Y-115253869D01*
X179051095Y-115051782D01*
X178954624Y-114862449D01*
X178915270Y-114808282D01*
X178915269Y-114808282D01*
X178282962Y-115440590D01*
X178265925Y-115377007D01*
X178200099Y-115262993D01*
X178107007Y-115169901D01*
X177992993Y-115104075D01*
X177929409Y-115087037D01*
X178599627Y-114416818D01*
X178660950Y-114383333D01*
X178687307Y-114380499D01*
X178697872Y-114380499D01*
X178757483Y-114374091D01*
X178892331Y-114323796D01*
X179007546Y-114237546D01*
X179093796Y-114122331D01*
X179144091Y-113987483D01*
X179150500Y-113927873D01*
X179150500Y-113904500D01*
X179170185Y-113837461D01*
X179222989Y-113791706D01*
X179274500Y-113780500D01*
X189025501Y-113780500D01*
X189092540Y-113800185D01*
G37*
%TD.AperFunction*%
%TA.AperFunction,Conductor*%
G36*
X193944457Y-88284685D02*
G01*
X193990212Y-88337489D01*
X194001418Y-88389000D01*
X194001418Y-124049792D01*
X193981733Y-124116831D01*
X193928929Y-124162586D01*
X193877418Y-124173792D01*
X146037966Y-124173792D01*
X145970927Y-124154107D01*
X145925172Y-124101303D01*
X145913966Y-124049792D01*
X145913966Y-120814986D01*
X149705001Y-120814986D01*
X149715494Y-120917697D01*
X149770641Y-121084119D01*
X149770643Y-121084124D01*
X149862684Y-121233345D01*
X149986654Y-121357315D01*
X150135875Y-121449356D01*
X150135880Y-121449358D01*
X150302302Y-121504505D01*
X150302309Y-121504506D01*
X150405019Y-121514999D01*
X150754999Y-121514999D01*
X151255000Y-121514999D01*
X151604972Y-121514999D01*
X151604986Y-121514998D01*
X151707697Y-121504505D01*
X151874119Y-121449358D01*
X151874124Y-121449356D01*
X152023345Y-121357315D01*
X152127943Y-121252718D01*
X152147315Y-121233345D01*
X152239356Y-121084124D01*
X152239358Y-121084119D01*
X152294505Y-120917697D01*
X152294506Y-120917690D01*
X152304999Y-120814986D01*
X152305000Y-120814973D01*
X152305000Y-120046947D01*
X158465000Y-120046947D01*
X158465000Y-120283052D01*
X158501934Y-120516247D01*
X158574897Y-120740802D01*
X158682087Y-120951174D01*
X158742338Y-121034104D01*
X158742340Y-121034105D01*
X159441212Y-120335233D01*
X159452482Y-120377292D01*
X159524890Y-120502708D01*
X159627292Y-120605110D01*
X159752708Y-120677518D01*
X159794765Y-120688787D01*
X159095893Y-121387658D01*
X159178828Y-121447914D01*
X159389197Y-121555102D01*
X159613752Y-121628065D01*
X159613751Y-121628065D01*
X159846948Y-121665000D01*
X160083052Y-121665000D01*
X160316247Y-121628065D01*
X160540802Y-121555102D01*
X160751163Y-121447918D01*
X160751169Y-121447914D01*
X160834104Y-121387658D01*
X160834105Y-121387658D01*
X160135233Y-120688787D01*
X160177292Y-120677518D01*
X160302708Y-120605110D01*
X160405110Y-120502708D01*
X160477518Y-120377292D01*
X160488787Y-120335234D01*
X161187658Y-121034105D01*
X161187658Y-121034104D01*
X161247914Y-120951169D01*
X161247918Y-120951163D01*
X161355102Y-120740802D01*
X161428065Y-120516247D01*
X161465000Y-120283052D01*
X161465000Y-120046947D01*
X161464993Y-120046902D01*
X162964500Y-120046902D01*
X162964500Y-120283097D01*
X163001446Y-120516368D01*
X163074433Y-120740996D01*
X163181519Y-120951163D01*
X163181657Y-120951433D01*
X163320483Y-121142510D01*
X163487490Y-121309517D01*
X163678567Y-121448343D01*
X163777991Y-121499002D01*
X163889003Y-121555566D01*
X163889005Y-121555566D01*
X163889008Y-121555568D01*
X164009412Y-121594689D01*
X164113631Y-121628553D01*
X164346903Y-121665500D01*
X164346908Y-121665500D01*
X164583097Y-121665500D01*
X164816368Y-121628553D01*
X164817870Y-121628065D01*
X165040992Y-121555568D01*
X165251433Y-121448343D01*
X165442510Y-121309517D01*
X165609517Y-121142510D01*
X165748343Y-120951433D01*
X165855568Y-120740992D01*
X165928553Y-120516368D01*
X165930717Y-120502708D01*
X165965500Y-120283097D01*
X165965500Y-120046902D01*
X167354500Y-120046902D01*
X167354500Y-120283097D01*
X167391446Y-120516368D01*
X167464433Y-120740996D01*
X167571519Y-120951163D01*
X167571657Y-120951433D01*
X167710483Y-121142510D01*
X167877490Y-121309517D01*
X168068567Y-121448343D01*
X168167991Y-121499002D01*
X168279003Y-121555566D01*
X168279005Y-121555566D01*
X168279008Y-121555568D01*
X168399412Y-121594689D01*
X168503631Y-121628553D01*
X168736903Y-121665500D01*
X168736908Y-121665500D01*
X168973097Y-121665500D01*
X169206368Y-121628553D01*
X169207870Y-121628065D01*
X169430992Y-121555568D01*
X169641433Y-121448343D01*
X169832510Y-121309517D01*
X169999517Y-121142510D01*
X170138343Y-120951433D01*
X170245568Y-120740992D01*
X170318553Y-120516368D01*
X170320717Y-120502708D01*
X170355500Y-120283097D01*
X170355500Y-120046947D01*
X171855000Y-120046947D01*
X171855000Y-120283052D01*
X171891934Y-120516247D01*
X171964897Y-120740802D01*
X172072087Y-120951174D01*
X172132338Y-121034104D01*
X172132340Y-121034105D01*
X172831212Y-120335233D01*
X172842482Y-120377292D01*
X172914890Y-120502708D01*
X173017292Y-120605110D01*
X173142708Y-120677518D01*
X173184765Y-120688787D01*
X172485893Y-121387658D01*
X172568828Y-121447914D01*
X172779197Y-121555102D01*
X173003752Y-121628065D01*
X173003751Y-121628065D01*
X173236948Y-121665000D01*
X173473052Y-121665000D01*
X173706247Y-121628065D01*
X173930802Y-121555102D01*
X174141163Y-121447918D01*
X174141169Y-121447914D01*
X174224104Y-121387658D01*
X174224105Y-121387658D01*
X173525233Y-120688787D01*
X173567292Y-120677518D01*
X173692708Y-120605110D01*
X173795110Y-120502708D01*
X173867518Y-120377292D01*
X173878787Y-120335234D01*
X174577658Y-121034105D01*
X174577658Y-121034104D01*
X174637914Y-120951169D01*
X174637918Y-120951163D01*
X174745102Y-120740802D01*
X174818065Y-120516247D01*
X174855000Y-120283052D01*
X174855000Y-120046947D01*
X174818065Y-119813752D01*
X174745102Y-119589197D01*
X174637914Y-119378828D01*
X174577658Y-119295894D01*
X174577658Y-119295893D01*
X173878787Y-119994765D01*
X173867518Y-119952708D01*
X173795110Y-119827292D01*
X173692708Y-119724890D01*
X173567292Y-119652482D01*
X173525234Y-119641212D01*
X174224105Y-118942340D01*
X174224104Y-118942338D01*
X174141174Y-118882087D01*
X173930802Y-118774897D01*
X173706247Y-118701934D01*
X173706248Y-118701934D01*
X173473052Y-118665000D01*
X173236948Y-118665000D01*
X173003752Y-118701934D01*
X172779197Y-118774897D01*
X172568830Y-118882084D01*
X172485894Y-118942340D01*
X173184766Y-119641212D01*
X173142708Y-119652482D01*
X173017292Y-119724890D01*
X172914890Y-119827292D01*
X172842482Y-119952708D01*
X172831212Y-119994765D01*
X172132340Y-119295894D01*
X172072084Y-119378830D01*
X171964897Y-119589197D01*
X171891934Y-119813752D01*
X171855000Y-120046947D01*
X170355500Y-120046947D01*
X170355500Y-120046902D01*
X170318553Y-119813631D01*
X170245566Y-119589003D01*
X170175477Y-119451447D01*
X170138343Y-119378567D01*
X169999517Y-119187490D01*
X169832510Y-119020483D01*
X169641433Y-118881657D01*
X169430996Y-118774433D01*
X169206368Y-118701446D01*
X168973097Y-118664500D01*
X168973092Y-118664500D01*
X168736908Y-118664500D01*
X168736903Y-118664500D01*
X168503631Y-118701446D01*
X168279003Y-118774433D01*
X168068566Y-118881657D01*
X167985047Y-118942338D01*
X167877490Y-119020483D01*
X167877488Y-119020485D01*
X167877487Y-119020485D01*
X167710485Y-119187487D01*
X167710485Y-119187488D01*
X167710483Y-119187490D01*
X167654134Y-119265048D01*
X167571657Y-119378566D01*
X167464433Y-119589003D01*
X167391446Y-119813631D01*
X167354500Y-120046902D01*
X165965500Y-120046902D01*
X165928553Y-119813631D01*
X165855566Y-119589003D01*
X165785477Y-119451447D01*
X165748343Y-119378567D01*
X165609517Y-119187490D01*
X165442510Y-119020483D01*
X165251433Y-118881657D01*
X165040996Y-118774433D01*
X164816368Y-118701446D01*
X164583097Y-118664500D01*
X164583092Y-118664500D01*
X164346908Y-118664500D01*
X164346903Y-118664500D01*
X164113631Y-118701446D01*
X163889003Y-118774433D01*
X163678566Y-118881657D01*
X163595047Y-118942338D01*
X163487490Y-119020483D01*
X163487488Y-119020485D01*
X163487487Y-119020485D01*
X163320485Y-119187487D01*
X163320485Y-119187488D01*
X163320483Y-119187490D01*
X163264134Y-119265048D01*
X163181657Y-119378566D01*
X163074433Y-119589003D01*
X163001446Y-119813631D01*
X162964500Y-120046902D01*
X161464993Y-120046902D01*
X161428065Y-119813752D01*
X161355102Y-119589197D01*
X161247914Y-119378828D01*
X161187658Y-119295894D01*
X161187658Y-119295893D01*
X160488787Y-119994765D01*
X160477518Y-119952708D01*
X160405110Y-119827292D01*
X160302708Y-119724890D01*
X160177292Y-119652482D01*
X160135234Y-119641212D01*
X160834105Y-118942340D01*
X160834104Y-118942338D01*
X160751174Y-118882087D01*
X160540802Y-118774897D01*
X160316247Y-118701934D01*
X160316248Y-118701934D01*
X160083052Y-118665000D01*
X159846948Y-118665000D01*
X159613752Y-118701934D01*
X159389197Y-118774897D01*
X159178830Y-118882084D01*
X159095894Y-118942340D01*
X159794766Y-119641212D01*
X159752708Y-119652482D01*
X159627292Y-119724890D01*
X159524890Y-119827292D01*
X159452482Y-119952708D01*
X159441212Y-119994766D01*
X158742340Y-119295894D01*
X158682084Y-119378830D01*
X158574897Y-119589197D01*
X158501934Y-119813752D01*
X158465000Y-120046947D01*
X152305000Y-120046947D01*
X152305000Y-119515000D01*
X151255000Y-119515000D01*
X151255000Y-121514999D01*
X150754999Y-121514999D01*
X150755000Y-121514998D01*
X150755000Y-119515000D01*
X149705001Y-119515000D01*
X149705001Y-120814986D01*
X145913966Y-120814986D01*
X145913966Y-117715013D01*
X149705000Y-117715013D01*
X149705000Y-119015000D01*
X150755000Y-119015000D01*
X151255000Y-119015000D01*
X152304999Y-119015000D01*
X152304999Y-117715028D01*
X152304998Y-117715013D01*
X152294505Y-117612302D01*
X152239358Y-117445880D01*
X152239356Y-117445875D01*
X152147315Y-117296654D01*
X152023345Y-117172684D01*
X151874124Y-117080643D01*
X151874119Y-117080641D01*
X151707697Y-117025494D01*
X151707690Y-117025493D01*
X151604986Y-117015000D01*
X151255000Y-117015000D01*
X151255000Y-119015000D01*
X150755000Y-119015000D01*
X150755000Y-117015000D01*
X150405028Y-117015000D01*
X150405012Y-117015001D01*
X150302302Y-117025494D01*
X150135880Y-117080641D01*
X150135875Y-117080643D01*
X149986654Y-117172684D01*
X149862684Y-117296654D01*
X149770643Y-117445875D01*
X149770641Y-117445880D01*
X149715494Y-117612302D01*
X149715493Y-117612309D01*
X149705000Y-117715013D01*
X145913966Y-117715013D01*
X145913966Y-106941294D01*
X147152300Y-106941294D01*
X147152300Y-106950874D01*
X147152300Y-110499411D01*
X147176335Y-110620244D01*
X147176340Y-110620261D01*
X147223485Y-110734080D01*
X147223487Y-110734083D01*
X147223488Y-110734086D01*
X147257715Y-110785309D01*
X147291942Y-110836533D01*
X147379067Y-110923658D01*
X147379070Y-110923660D01*
X147386354Y-110930944D01*
X149668181Y-113212771D01*
X149701666Y-113274094D01*
X149704500Y-113300452D01*
X149704500Y-115215001D01*
X149704501Y-115215018D01*
X149715000Y-115317796D01*
X149715001Y-115317799D01*
X149763366Y-115463753D01*
X149770186Y-115484334D01*
X149862288Y-115633656D01*
X149986344Y-115757712D01*
X150135666Y-115849814D01*
X150302203Y-115904999D01*
X150404991Y-115915500D01*
X151605008Y-115915499D01*
X151707797Y-115904999D01*
X151874334Y-115849814D01*
X152023656Y-115757712D01*
X152147712Y-115633656D01*
X152239814Y-115484334D01*
X152294999Y-115317797D01*
X152305500Y-115215009D01*
X152305499Y-112114992D01*
X152294999Y-112012203D01*
X152239814Y-111845666D01*
X152147712Y-111696344D01*
X152023656Y-111572288D01*
X151874334Y-111480186D01*
X151707797Y-111425001D01*
X151707795Y-111425000D01*
X151605010Y-111414500D01*
X150404998Y-111414500D01*
X150404981Y-111414501D01*
X150302203Y-111425000D01*
X150302200Y-111425001D01*
X150135668Y-111480185D01*
X150135663Y-111480187D01*
X149986342Y-111572289D01*
X149979292Y-111579340D01*
X149917969Y-111612825D01*
X149848277Y-111607841D01*
X149803930Y-111579340D01*
X148439619Y-110215029D01*
X148406134Y-110153706D01*
X148403300Y-110127348D01*
X148403300Y-109524000D01*
X148422985Y-109456961D01*
X148475789Y-109411206D01*
X148527300Y-109400000D01*
X148580000Y-109400000D01*
X148580000Y-108024000D01*
X148599685Y-107956961D01*
X148652489Y-107911206D01*
X148704000Y-107900000D01*
X148956000Y-107900000D01*
X149023039Y-107919685D01*
X149068794Y-107972489D01*
X149080000Y-108024000D01*
X149080000Y-109400000D01*
X149281097Y-109400000D01*
X149323824Y-109397102D01*
X149508523Y-109351168D01*
X149679022Y-109266609D01*
X149679025Y-109266607D01*
X149827366Y-109147367D01*
X149827367Y-109147366D01*
X149883033Y-109078115D01*
X149940376Y-109038196D01*
X150010198Y-109035616D01*
X150070331Y-109071194D01*
X150076305Y-109078089D01*
X150132278Y-109147722D01*
X150132280Y-109147724D01*
X150280704Y-109267030D01*
X150280707Y-109267032D01*
X150451302Y-109351639D01*
X150451303Y-109351639D01*
X150451307Y-109351641D01*
X150636111Y-109397600D01*
X150678877Y-109400500D01*
X151581122Y-109400499D01*
X151623889Y-109397600D01*
X151808693Y-109351641D01*
X151979296Y-109267030D01*
X152127722Y-109147722D01*
X152183353Y-109078514D01*
X152240696Y-109038595D01*
X152310518Y-109036015D01*
X152370651Y-109071594D01*
X152376647Y-109078514D01*
X152432277Y-109147721D01*
X152432278Y-109147722D01*
X152580704Y-109267030D01*
X152580707Y-109267032D01*
X152751302Y-109351639D01*
X152751303Y-109351639D01*
X152751307Y-109351641D01*
X152936111Y-109397600D01*
X152978877Y-109400500D01*
X153817769Y-109400499D01*
X153884808Y-109420183D01*
X153905450Y-109436818D01*
X154369748Y-109901116D01*
X156559149Y-112090516D01*
X156624133Y-112155500D01*
X156663685Y-112195052D01*
X156786598Y-112277180D01*
X156786611Y-112277187D01*
X156923182Y-112333756D01*
X156923187Y-112333758D01*
X156923191Y-112333758D01*
X156923192Y-112333759D01*
X157068179Y-112362600D01*
X157068182Y-112362600D01*
X158968027Y-112362600D01*
X159035066Y-112382285D01*
X159053653Y-112403736D01*
X159055472Y-112401918D01*
X159794766Y-113141212D01*
X159752708Y-113152482D01*
X159627292Y-113224890D01*
X159524890Y-113327292D01*
X159452482Y-113452708D01*
X159441212Y-113494766D01*
X158742340Y-112795894D01*
X158682084Y-112878830D01*
X158574897Y-113089197D01*
X158501934Y-113313752D01*
X158465000Y-113546947D01*
X158465000Y-113783052D01*
X158501934Y-114016247D01*
X158574897Y-114240802D01*
X158682087Y-114451174D01*
X158742338Y-114534104D01*
X158742340Y-114534105D01*
X159441212Y-113835233D01*
X159452482Y-113877292D01*
X159524890Y-114002708D01*
X159627292Y-114105110D01*
X159752708Y-114177518D01*
X159794765Y-114188787D01*
X159095893Y-114887658D01*
X159178828Y-114947914D01*
X159389197Y-115055102D01*
X159613752Y-115128065D01*
X159613751Y-115128065D01*
X159846948Y-115165000D01*
X160083052Y-115165000D01*
X160316247Y-115128065D01*
X160540802Y-115055102D01*
X160751163Y-114947918D01*
X160751169Y-114947914D01*
X160834104Y-114887658D01*
X160834105Y-114887658D01*
X160135233Y-114188787D01*
X160177292Y-114177518D01*
X160302708Y-114105110D01*
X160405110Y-114002708D01*
X160477518Y-113877292D01*
X160488787Y-113835234D01*
X161187658Y-114534105D01*
X161187658Y-114534104D01*
X161247914Y-114451169D01*
X161247918Y-114451163D01*
X161355102Y-114240802D01*
X161428065Y-114016247D01*
X161465000Y-113783052D01*
X161465000Y-113546947D01*
X161428065Y-113313752D01*
X161355102Y-113089197D01*
X161247914Y-112878828D01*
X161187658Y-112795894D01*
X161187658Y-112795893D01*
X160488787Y-113494765D01*
X160477518Y-113452708D01*
X160405110Y-113327292D01*
X160302708Y-113224890D01*
X160177292Y-113152482D01*
X160135234Y-113141212D01*
X160874527Y-112401919D01*
X160876468Y-112403860D01*
X160901773Y-112378193D01*
X160961972Y-112362600D01*
X163346011Y-112362600D01*
X163413050Y-112382285D01*
X163458805Y-112435089D01*
X163468749Y-112504247D01*
X163439724Y-112567803D01*
X163433692Y-112574281D01*
X163320485Y-112687487D01*
X163320485Y-112687488D01*
X163320483Y-112687490D01*
X163260862Y-112769550D01*
X163181657Y-112878566D01*
X163074433Y-113089003D01*
X163001446Y-113313631D01*
X162964500Y-113546902D01*
X162964500Y-113783097D01*
X163001446Y-114016368D01*
X163074433Y-114240996D01*
X163146958Y-114383333D01*
X163181657Y-114451433D01*
X163320483Y-114642510D01*
X163487490Y-114809517D01*
X163678567Y-114948343D01*
X163777991Y-114999002D01*
X163889003Y-115055566D01*
X163889005Y-115055566D01*
X163889008Y-115055568D01*
X164009412Y-115094689D01*
X164113631Y-115128553D01*
X164346903Y-115165500D01*
X164346908Y-115165500D01*
X164583097Y-115165500D01*
X164816368Y-115128553D01*
X164891703Y-115104075D01*
X165040992Y-115055568D01*
X165251433Y-114948343D01*
X165442510Y-114809517D01*
X165609517Y-114642510D01*
X165748343Y-114451433D01*
X165855568Y-114240992D01*
X165928553Y-114016368D01*
X165942569Y-113927873D01*
X165965500Y-113783097D01*
X165965500Y-113546902D01*
X165928553Y-113313631D01*
X165855566Y-113089003D01*
X165748477Y-112878830D01*
X165748343Y-112878567D01*
X165609517Y-112687490D01*
X165496308Y-112574281D01*
X165462823Y-112512958D01*
X165467807Y-112443266D01*
X165509679Y-112387333D01*
X165575143Y-112362916D01*
X165583989Y-112362600D01*
X167736011Y-112362600D01*
X167803050Y-112382285D01*
X167848805Y-112435089D01*
X167858749Y-112504247D01*
X167829724Y-112567803D01*
X167823692Y-112574281D01*
X167710485Y-112687487D01*
X167710485Y-112687488D01*
X167710483Y-112687490D01*
X167650862Y-112769550D01*
X167571657Y-112878566D01*
X167464433Y-113089003D01*
X167391446Y-113313631D01*
X167354500Y-113546902D01*
X167354500Y-113783097D01*
X167391446Y-114016368D01*
X167464433Y-114240996D01*
X167536958Y-114383333D01*
X167571657Y-114451433D01*
X167710483Y-114642510D01*
X167877490Y-114809517D01*
X168068567Y-114948343D01*
X168167991Y-114999002D01*
X168279003Y-115055566D01*
X168279005Y-115055566D01*
X168279008Y-115055568D01*
X168399412Y-115094689D01*
X168503631Y-115128553D01*
X168736903Y-115165500D01*
X168736908Y-115165500D01*
X168973097Y-115165500D01*
X169206368Y-115128553D01*
X169281703Y-115104075D01*
X169430992Y-115055568D01*
X169641433Y-114948343D01*
X169832510Y-114809517D01*
X169999517Y-114642510D01*
X170138343Y-114451433D01*
X170245568Y-114240992D01*
X170318553Y-114016368D01*
X170332569Y-113927873D01*
X170355500Y-113783097D01*
X170355500Y-113546902D01*
X170318553Y-113313631D01*
X170245566Y-113089003D01*
X170138477Y-112878830D01*
X170138343Y-112878567D01*
X169999517Y-112687490D01*
X169886308Y-112574281D01*
X169852823Y-112512958D01*
X169857807Y-112443266D01*
X169899679Y-112387333D01*
X169965143Y-112362916D01*
X169973989Y-112362600D01*
X172358027Y-112362600D01*
X172425066Y-112382285D01*
X172443653Y-112403736D01*
X172445472Y-112401918D01*
X173184766Y-113141212D01*
X173142708Y-113152482D01*
X173017292Y-113224890D01*
X172914890Y-113327292D01*
X172842482Y-113452708D01*
X172831212Y-113494765D01*
X172132340Y-112795894D01*
X172072084Y-112878830D01*
X171964897Y-113089197D01*
X171891934Y-113313752D01*
X171855000Y-113546947D01*
X171855000Y-113783052D01*
X171891934Y-114016247D01*
X171964897Y-114240802D01*
X172072087Y-114451174D01*
X172132338Y-114534104D01*
X172132340Y-114534105D01*
X172831212Y-113835233D01*
X172842482Y-113877292D01*
X172914890Y-114002708D01*
X173017292Y-114105110D01*
X173142708Y-114177518D01*
X173184765Y-114188787D01*
X172485893Y-114887658D01*
X172568828Y-114947914D01*
X172779197Y-115055102D01*
X173003752Y-115128065D01*
X173003751Y-115128065D01*
X173236948Y-115165000D01*
X173473052Y-115165000D01*
X173706247Y-115128065D01*
X173930802Y-115055102D01*
X174141163Y-114947918D01*
X174141169Y-114947914D01*
X174224104Y-114887658D01*
X174224105Y-114887658D01*
X173525233Y-114188787D01*
X173567292Y-114177518D01*
X173692708Y-114105110D01*
X173795110Y-114002708D01*
X173867518Y-113877292D01*
X173878787Y-113835234D01*
X174577658Y-114534105D01*
X174577658Y-114534104D01*
X174637914Y-114451169D01*
X174637918Y-114451163D01*
X174745102Y-114240802D01*
X174818065Y-114016247D01*
X174855000Y-113783052D01*
X174855000Y-113546947D01*
X174818065Y-113313752D01*
X174745102Y-113089197D01*
X174637914Y-112878828D01*
X174577658Y-112795894D01*
X174577658Y-112795893D01*
X173878787Y-113494765D01*
X173867518Y-113452708D01*
X173795110Y-113327292D01*
X173692708Y-113224890D01*
X173567292Y-113152482D01*
X173525234Y-113141212D01*
X174264527Y-112401919D01*
X174266468Y-112403860D01*
X174291773Y-112378193D01*
X174351972Y-112362600D01*
X174788170Y-112362600D01*
X174855209Y-112382285D01*
X174875851Y-112398919D01*
X176089880Y-113612948D01*
X176089884Y-113612951D01*
X176212798Y-113695080D01*
X176212811Y-113695087D01*
X176349382Y-113751656D01*
X176349387Y-113751658D01*
X176349391Y-113751658D01*
X176349392Y-113751659D01*
X176349692Y-113751719D01*
X176349834Y-113751793D01*
X176355219Y-113753427D01*
X176354909Y-113754448D01*
X176411603Y-113784104D01*
X176446177Y-113844820D01*
X176449500Y-113873334D01*
X176449500Y-113927869D01*
X176449501Y-113927876D01*
X176455908Y-113987483D01*
X176506202Y-114122328D01*
X176506206Y-114122335D01*
X176592452Y-114237544D01*
X176592455Y-114237547D01*
X176707664Y-114323793D01*
X176707671Y-114323797D01*
X176752618Y-114340561D01*
X176842517Y-114374091D01*
X176902127Y-114380500D01*
X176912685Y-114380499D01*
X176979723Y-114400179D01*
X177000372Y-114416818D01*
X177670591Y-115087037D01*
X177607007Y-115104075D01*
X177492993Y-115169901D01*
X177399901Y-115262993D01*
X177334075Y-115377007D01*
X177317037Y-115440591D01*
X176684728Y-114808282D01*
X176684727Y-114808282D01*
X176645380Y-114862439D01*
X176548904Y-115051782D01*
X176483242Y-115253869D01*
X176483242Y-115253872D01*
X176450000Y-115463753D01*
X176450000Y-115676246D01*
X176483242Y-115886127D01*
X176483242Y-115886130D01*
X176548904Y-116088217D01*
X176645375Y-116277550D01*
X176684728Y-116331716D01*
X177317037Y-115699408D01*
X177334075Y-115762993D01*
X177399901Y-115877007D01*
X177492993Y-115970099D01*
X177607007Y-116035925D01*
X177670590Y-116052962D01*
X177038282Y-116685269D01*
X177038282Y-116685270D01*
X177092452Y-116724626D01*
X177092451Y-116724626D01*
X177101495Y-116729234D01*
X177152292Y-116777208D01*
X177169087Y-116845029D01*
X177146550Y-116911164D01*
X177101499Y-116950202D01*
X177092182Y-116954949D01*
X176920213Y-117079890D01*
X176769890Y-117230213D01*
X176644951Y-117402179D01*
X176548444Y-117591585D01*
X176482753Y-117793760D01*
X176449500Y-118003713D01*
X176449500Y-118216286D01*
X176476428Y-118386306D01*
X176482754Y-118426243D01*
X176543753Y-118613979D01*
X176548444Y-118628414D01*
X176644951Y-118817820D01*
X176769890Y-118989786D01*
X176920213Y-119140109D01*
X177092182Y-119265050D01*
X177100946Y-119269516D01*
X177151742Y-119317491D01*
X177168536Y-119385312D01*
X177145998Y-119451447D01*
X177100946Y-119490484D01*
X177092182Y-119494949D01*
X176920213Y-119619890D01*
X176769890Y-119770213D01*
X176644951Y-119942179D01*
X176548444Y-120131585D01*
X176482753Y-120333760D01*
X176449500Y-120543713D01*
X176449500Y-120756286D01*
X176480365Y-120951163D01*
X176482754Y-120966243D01*
X176540027Y-121142511D01*
X176548444Y-121168414D01*
X176644951Y-121357820D01*
X176769890Y-121529786D01*
X176920213Y-121680109D01*
X177092179Y-121805048D01*
X177092181Y-121805049D01*
X177092184Y-121805051D01*
X177281588Y-121901557D01*
X177483757Y-121967246D01*
X177693713Y-122000500D01*
X177693714Y-122000500D01*
X177906286Y-122000500D01*
X177906287Y-122000500D01*
X178116243Y-121967246D01*
X178318412Y-121901557D01*
X178507816Y-121805051D01*
X178529789Y-121789086D01*
X178679786Y-121680109D01*
X178679788Y-121680106D01*
X178679792Y-121680104D01*
X178830104Y-121529792D01*
X178830106Y-121529788D01*
X178830109Y-121529786D01*
X178955049Y-121357819D01*
X178962497Y-121343203D01*
X179010473Y-121292408D01*
X179072981Y-121275500D01*
X189227019Y-121275500D01*
X189294058Y-121295185D01*
X189337503Y-121343203D01*
X189344950Y-121357819D01*
X189469890Y-121529786D01*
X189620213Y-121680109D01*
X189792179Y-121805048D01*
X189792181Y-121805049D01*
X189792184Y-121805051D01*
X189981588Y-121901557D01*
X190183757Y-121967246D01*
X190393713Y-122000500D01*
X190393714Y-122000500D01*
X190606286Y-122000500D01*
X190606287Y-122000500D01*
X190816243Y-121967246D01*
X191018412Y-121901557D01*
X191207816Y-121805051D01*
X191229789Y-121789086D01*
X191379786Y-121680109D01*
X191379788Y-121680106D01*
X191379792Y-121680104D01*
X191530104Y-121529792D01*
X191530106Y-121529788D01*
X191530109Y-121529786D01*
X191655048Y-121357820D01*
X191655049Y-121357819D01*
X191655051Y-121357816D01*
X191751557Y-121168412D01*
X191817246Y-120966243D01*
X191850500Y-120756287D01*
X191850500Y-120543713D01*
X191817246Y-120333757D01*
X191751557Y-120131588D01*
X191655051Y-119942184D01*
X191655049Y-119942181D01*
X191655048Y-119942179D01*
X191530109Y-119770213D01*
X191379786Y-119619890D01*
X191207820Y-119494951D01*
X191207115Y-119494591D01*
X191199054Y-119490485D01*
X191148259Y-119442512D01*
X191131463Y-119374692D01*
X191153999Y-119308556D01*
X191199054Y-119269515D01*
X191207816Y-119265051D01*
X191229789Y-119249086D01*
X191379786Y-119140109D01*
X191379788Y-119140106D01*
X191379792Y-119140104D01*
X191530104Y-118989792D01*
X191530106Y-118989788D01*
X191530109Y-118989786D01*
X191655048Y-118817820D01*
X191655047Y-118817820D01*
X191655051Y-118817816D01*
X191751557Y-118628412D01*
X191817246Y-118426243D01*
X191850500Y-118216287D01*
X191850500Y-118003713D01*
X191817246Y-117793757D01*
X191751557Y-117591588D01*
X191655051Y-117402184D01*
X191655049Y-117402181D01*
X191655048Y-117402179D01*
X191530109Y-117230213D01*
X191379786Y-117079890D01*
X191207817Y-116954949D01*
X191198504Y-116950204D01*
X191147707Y-116902230D01*
X191130912Y-116834409D01*
X191153449Y-116768274D01*
X191198507Y-116729232D01*
X191207555Y-116724622D01*
X191261716Y-116685270D01*
X191261717Y-116685270D01*
X190629408Y-116052962D01*
X190692993Y-116035925D01*
X190807007Y-115970099D01*
X190900099Y-115877007D01*
X190965925Y-115762993D01*
X190982962Y-115699408D01*
X191615270Y-116331717D01*
X191615270Y-116331716D01*
X191654622Y-116277554D01*
X191751095Y-116088217D01*
X191816757Y-115886130D01*
X191816757Y-115886127D01*
X191850000Y-115676246D01*
X191850000Y-115463753D01*
X191816757Y-115253872D01*
X191816757Y-115253869D01*
X191751095Y-115051782D01*
X191654624Y-114862449D01*
X191615270Y-114808282D01*
X191615269Y-114808282D01*
X190982962Y-115440590D01*
X190965925Y-115377007D01*
X190900099Y-115262993D01*
X190807007Y-115169901D01*
X190692993Y-115104075D01*
X190629409Y-115087037D01*
X191299627Y-114416818D01*
X191360950Y-114383333D01*
X191387307Y-114380499D01*
X191397872Y-114380499D01*
X191457483Y-114374091D01*
X191592331Y-114323796D01*
X191707546Y-114237546D01*
X191793796Y-114122331D01*
X191844091Y-113987483D01*
X191850500Y-113927873D01*
X191850499Y-112132128D01*
X191844091Y-112072517D01*
X191821595Y-112012203D01*
X191793797Y-111937671D01*
X191793793Y-111937664D01*
X191707547Y-111822455D01*
X191707544Y-111822452D01*
X191592335Y-111736206D01*
X191592328Y-111736202D01*
X191457482Y-111685908D01*
X191457483Y-111685908D01*
X191397883Y-111679501D01*
X191397881Y-111679500D01*
X191397873Y-111679500D01*
X191397864Y-111679500D01*
X189602129Y-111679500D01*
X189602123Y-111679501D01*
X189542516Y-111685908D01*
X189407671Y-111736202D01*
X189407664Y-111736206D01*
X189292455Y-111822452D01*
X189292452Y-111822455D01*
X189206206Y-111937664D01*
X189206202Y-111937671D01*
X189155908Y-112072517D01*
X189149501Y-112132116D01*
X189149501Y-112132123D01*
X189149500Y-112132135D01*
X189149500Y-112155500D01*
X189129815Y-112222539D01*
X189077011Y-112268294D01*
X189025500Y-112279500D01*
X179274499Y-112279500D01*
X179207460Y-112259815D01*
X179161705Y-112207011D01*
X179150499Y-112155500D01*
X179150499Y-112132129D01*
X179150498Y-112132123D01*
X179150497Y-112132116D01*
X179144091Y-112072517D01*
X179121595Y-112012203D01*
X179093797Y-111937671D01*
X179093793Y-111937664D01*
X179007547Y-111822455D01*
X179007544Y-111822452D01*
X178892335Y-111736206D01*
X178892328Y-111736202D01*
X178757482Y-111685908D01*
X178757483Y-111685908D01*
X178697883Y-111679501D01*
X178697881Y-111679500D01*
X178697873Y-111679500D01*
X178697864Y-111679500D01*
X176902129Y-111679500D01*
X176902123Y-111679501D01*
X176842516Y-111685908D01*
X176707671Y-111736202D01*
X176707664Y-111736206D01*
X176585355Y-111827768D01*
X176583987Y-111825941D01*
X176533613Y-111853430D01*
X176463923Y-111848427D01*
X176419606Y-111819938D01*
X175628821Y-111029152D01*
X175628814Y-111029146D01*
X175555129Y-110979912D01*
X175555129Y-110979913D01*
X175505891Y-110947013D01*
X175369317Y-110890443D01*
X175369307Y-110890440D01*
X175224320Y-110861600D01*
X175224318Y-110861600D01*
X157504329Y-110861600D01*
X157437290Y-110841915D01*
X157416648Y-110825281D01*
X155739519Y-109148151D01*
X155706034Y-109086828D01*
X155703200Y-109060470D01*
X155703200Y-107349528D01*
X155722885Y-107282489D01*
X155739514Y-107261852D01*
X157386670Y-105614696D01*
X157447988Y-105581214D01*
X157517679Y-105586198D01*
X157573613Y-105628070D01*
X157586644Y-105653020D01*
X157587592Y-105652579D01*
X157590643Y-105659124D01*
X157682684Y-105808345D01*
X157806654Y-105932315D01*
X157955875Y-106024356D01*
X157955880Y-106024358D01*
X158122302Y-106079505D01*
X158122309Y-106079506D01*
X158225019Y-106089999D01*
X158499999Y-106089999D01*
X159000000Y-106089999D01*
X159274972Y-106089999D01*
X159274986Y-106089998D01*
X159377697Y-106079505D01*
X159544119Y-106024358D01*
X159544124Y-106024356D01*
X159693345Y-105932315D01*
X159817315Y-105808345D01*
X159909356Y-105659124D01*
X159909358Y-105659119D01*
X159964505Y-105492697D01*
X159964506Y-105492690D01*
X159974999Y-105389986D01*
X159975000Y-105389973D01*
X159975000Y-105340000D01*
X159000000Y-105340000D01*
X159000000Y-106089999D01*
X158499999Y-106089999D01*
X158500000Y-106089998D01*
X158500000Y-105214000D01*
X158519685Y-105146961D01*
X158572489Y-105101206D01*
X158624000Y-105090000D01*
X158750000Y-105090000D01*
X158750000Y-104964000D01*
X158769685Y-104896961D01*
X158822489Y-104851206D01*
X158874000Y-104840000D01*
X159974999Y-104840000D01*
X159974999Y-104790028D01*
X159974998Y-104790013D01*
X159964505Y-104687302D01*
X159909358Y-104520880D01*
X159909356Y-104520875D01*
X159817315Y-104371654D01*
X159693344Y-104247683D01*
X159693341Y-104247681D01*
X159690339Y-104245829D01*
X159688713Y-104244021D01*
X159687677Y-104243202D01*
X159687817Y-104243024D01*
X159643617Y-104193880D01*
X159632397Y-104124917D01*
X159660243Y-104060836D01*
X159690344Y-104034754D01*
X159693656Y-104032712D01*
X159817712Y-103908656D01*
X159909814Y-103759334D01*
X159964999Y-103592797D01*
X159975500Y-103490009D01*
X159975499Y-102889992D01*
X159973999Y-102875312D01*
X159964999Y-102787203D01*
X159964998Y-102787200D01*
X159954345Y-102755051D01*
X159909814Y-102620666D01*
X159817712Y-102471344D01*
X159693656Y-102347288D01*
X159573525Y-102273191D01*
X159526801Y-102221243D01*
X159515578Y-102152280D01*
X159521329Y-102130536D01*
X159520526Y-102130293D01*
X159522288Y-102124478D01*
X159522294Y-102124466D01*
X159556900Y-101950491D01*
X159556900Y-101773109D01*
X159556900Y-101773106D01*
X159556899Y-101773104D01*
X159522296Y-101599141D01*
X159522293Y-101599132D01*
X159454416Y-101435259D01*
X159454409Y-101435246D01*
X159355864Y-101287765D01*
X159355861Y-101287761D01*
X159230438Y-101162338D01*
X159230434Y-101162335D01*
X159082953Y-101063790D01*
X159082940Y-101063783D01*
X158919067Y-100995906D01*
X158919058Y-100995903D01*
X158745094Y-100961300D01*
X158745091Y-100961300D01*
X158567709Y-100961300D01*
X158567706Y-100961300D01*
X158393741Y-100995903D01*
X158393732Y-100995906D01*
X158229859Y-101063783D01*
X158229846Y-101063790D01*
X158082365Y-101162335D01*
X158082361Y-101162338D01*
X157956938Y-101287761D01*
X157956935Y-101287765D01*
X157858390Y-101435246D01*
X157858383Y-101435259D01*
X157790506Y-101599132D01*
X157790503Y-101599141D01*
X157755900Y-101773104D01*
X157755900Y-101950495D01*
X157790503Y-102124458D01*
X157790505Y-102124463D01*
X157790506Y-102124466D01*
X157828701Y-102216678D01*
X157836170Y-102286146D01*
X157804895Y-102348625D01*
X157801822Y-102351810D01*
X157682287Y-102471345D01*
X157590187Y-102620663D01*
X157590185Y-102620668D01*
X157579336Y-102653409D01*
X157535001Y-102787203D01*
X157535001Y-102787204D01*
X157535000Y-102787204D01*
X157524500Y-102889983D01*
X157524500Y-103302770D01*
X157504815Y-103369809D01*
X157488181Y-103390451D01*
X154386641Y-106491990D01*
X154325318Y-106525475D01*
X154255626Y-106520491D01*
X154243866Y-106515398D01*
X154108693Y-106448359D01*
X153923892Y-106402400D01*
X153902506Y-106400950D01*
X153881123Y-106399500D01*
X153881120Y-106399500D01*
X152978877Y-106399500D01*
X152978874Y-106399501D01*
X152936113Y-106402399D01*
X152936112Y-106402399D01*
X152751303Y-106448360D01*
X152580707Y-106532967D01*
X152580704Y-106532969D01*
X152432280Y-106652276D01*
X152376647Y-106721486D01*
X152319304Y-106761405D01*
X152249482Y-106763985D01*
X152189349Y-106728406D01*
X152183353Y-106721486D01*
X152127720Y-106652276D01*
X151979295Y-106532969D01*
X151979292Y-106532967D01*
X151808697Y-106448360D01*
X151623892Y-106402400D01*
X151598229Y-106400660D01*
X151581123Y-106399500D01*
X151581121Y-106399500D01*
X151224852Y-106399500D01*
X151157813Y-106379815D01*
X151112058Y-106327011D01*
X151102114Y-106257853D01*
X151131139Y-106194297D01*
X151137171Y-106187819D01*
X151615855Y-105709136D01*
X151615855Y-105709135D01*
X151615858Y-105709133D01*
X151684312Y-105606685D01*
X151731463Y-105492851D01*
X151734117Y-105479511D01*
X151755500Y-105372006D01*
X151755500Y-103224499D01*
X151775185Y-103157460D01*
X151827989Y-103111705D01*
X151879500Y-103100499D01*
X152588028Y-103100499D01*
X152588036Y-103100499D01*
X152707418Y-103089886D01*
X152903049Y-103033909D01*
X153083407Y-102939698D01*
X153241109Y-102811109D01*
X153369698Y-102653407D01*
X153463909Y-102473049D01*
X153519886Y-102277418D01*
X153530500Y-102158037D01*
X153530499Y-101127951D01*
X153550183Y-101060913D01*
X153566813Y-101040276D01*
X157485273Y-97121816D01*
X157546594Y-97088333D01*
X157572943Y-97085499D01*
X158150008Y-97085499D01*
X158150016Y-97085498D01*
X158150019Y-97085498D01*
X158206302Y-97079748D01*
X158252797Y-97074999D01*
X158419334Y-97019814D01*
X158568656Y-96927712D01*
X158662319Y-96834049D01*
X158723642Y-96800564D01*
X158793334Y-96805548D01*
X158837681Y-96834049D01*
X158931344Y-96927712D01*
X159080666Y-97019814D01*
X159247203Y-97074999D01*
X159349991Y-97085500D01*
X159975008Y-97085499D01*
X159975016Y-97085498D01*
X159975019Y-97085498D01*
X160031302Y-97079748D01*
X160077797Y-97074999D01*
X160244334Y-97019814D01*
X160393656Y-96927712D01*
X160462822Y-96858545D01*
X160524141Y-96825063D01*
X160593833Y-96830047D01*
X160649767Y-96871918D01*
X160674184Y-96937382D01*
X160674500Y-96946229D01*
X160674500Y-97652870D01*
X160674501Y-97652876D01*
X160680908Y-97712481D01*
X160693659Y-97746669D01*
X160698642Y-97816361D01*
X160693659Y-97833331D01*
X160680908Y-97867518D01*
X160677364Y-97900486D01*
X160674501Y-97927123D01*
X160674500Y-97927135D01*
X160674500Y-98922870D01*
X160674501Y-98922876D01*
X160680908Y-98982481D01*
X160693659Y-99016669D01*
X160698642Y-99086361D01*
X160693659Y-99103331D01*
X160680908Y-99137518D01*
X160677556Y-99168701D01*
X160674501Y-99197123D01*
X160674500Y-99197135D01*
X160674500Y-100192870D01*
X160674501Y-100192876D01*
X160680908Y-100252481D01*
X160693659Y-100286669D01*
X160698642Y-100356361D01*
X160693659Y-100373331D01*
X160680908Y-100407518D01*
X160674501Y-100467116D01*
X160674500Y-100467135D01*
X160674500Y-101462870D01*
X160674501Y-101462876D01*
X160680908Y-101522481D01*
X160693659Y-101556669D01*
X160698642Y-101626361D01*
X160693659Y-101643331D01*
X160680908Y-101677518D01*
X160674501Y-101737116D01*
X160674500Y-101737135D01*
X160674500Y-102732870D01*
X160674501Y-102732876D01*
X160680908Y-102792481D01*
X160693659Y-102826669D01*
X160698642Y-102896361D01*
X160693659Y-102913331D01*
X160680908Y-102947518D01*
X160674501Y-103007116D01*
X160674500Y-103007135D01*
X160674500Y-104002870D01*
X160674501Y-104002876D01*
X160680908Y-104062481D01*
X160693659Y-104096669D01*
X160698642Y-104166361D01*
X160693659Y-104183331D01*
X160680908Y-104217518D01*
X160674501Y-104277116D01*
X160674500Y-104277135D01*
X160674500Y-105272870D01*
X160674501Y-105272876D01*
X160680908Y-105332481D01*
X160693659Y-105366669D01*
X160698642Y-105436361D01*
X160693659Y-105453331D01*
X160680908Y-105487518D01*
X160675099Y-105541554D01*
X160674501Y-105547123D01*
X160674500Y-105547135D01*
X160674500Y-106542870D01*
X160674501Y-106542876D01*
X160680908Y-106602483D01*
X160731202Y-106737328D01*
X160731206Y-106737335D01*
X160817452Y-106852544D01*
X160817455Y-106852547D01*
X160932664Y-106938793D01*
X160932671Y-106938797D01*
X161067517Y-106989091D01*
X161067516Y-106989091D01*
X161074444Y-106989835D01*
X161127127Y-106995500D01*
X162722872Y-106995499D01*
X162782483Y-106989091D01*
X162917331Y-106938796D01*
X163032546Y-106852546D01*
X163118796Y-106737331D01*
X163169091Y-106602483D01*
X163175500Y-106542873D01*
X163175500Y-106497155D01*
X164015000Y-106497155D01*
X164015000Y-107045000D01*
X164715000Y-107045000D01*
X164715000Y-106045000D01*
X164467155Y-106045000D01*
X164407627Y-106051401D01*
X164407620Y-106051403D01*
X164272913Y-106101645D01*
X164272906Y-106101649D01*
X164157812Y-106187809D01*
X164157809Y-106187812D01*
X164071649Y-106302906D01*
X164071645Y-106302913D01*
X164021403Y-106437620D01*
X164021401Y-106437627D01*
X164015000Y-106497155D01*
X163175500Y-106497155D01*
X163175499Y-106045000D01*
X163175499Y-105547129D01*
X163175498Y-105547123D01*
X163175497Y-105547116D01*
X163169091Y-105487517D01*
X163156340Y-105453332D01*
X163151357Y-105383642D01*
X163156340Y-105366669D01*
X163169091Y-105332483D01*
X163175500Y-105272873D01*
X163175499Y-104669449D01*
X163195183Y-104602412D01*
X163247987Y-104556657D01*
X163317146Y-104546713D01*
X163380702Y-104575738D01*
X163387180Y-104581770D01*
X163976016Y-105170606D01*
X163976045Y-105170637D01*
X164066263Y-105260855D01*
X164066267Y-105260858D01*
X164168707Y-105329307D01*
X164168713Y-105329310D01*
X164168714Y-105329311D01*
X164282548Y-105376463D01*
X164342971Y-105388481D01*
X164403393Y-105400500D01*
X164403394Y-105400500D01*
X175157248Y-105400500D01*
X175224287Y-105420185D01*
X175244929Y-105436819D01*
X175640929Y-105832819D01*
X175674414Y-105894142D01*
X175669430Y-105963834D01*
X175627558Y-106019767D01*
X175562094Y-106044184D01*
X175553248Y-106044500D01*
X174627129Y-106044500D01*
X174627123Y-106044501D01*
X174567518Y-106050908D01*
X174533331Y-106063659D01*
X174463639Y-106068642D01*
X174446669Y-106063659D01*
X174429140Y-106057121D01*
X174412483Y-106050909D01*
X174412482Y-106050908D01*
X174352883Y-106044501D01*
X174352881Y-106044500D01*
X174352873Y-106044500D01*
X174352864Y-106044500D01*
X173357129Y-106044500D01*
X173357123Y-106044501D01*
X173297518Y-106050908D01*
X173263331Y-106063659D01*
X173193639Y-106068642D01*
X173176669Y-106063659D01*
X173159140Y-106057121D01*
X173142483Y-106050909D01*
X173142482Y-106050908D01*
X173082883Y-106044501D01*
X173082881Y-106044500D01*
X173082873Y-106044500D01*
X173082864Y-106044500D01*
X172087129Y-106044500D01*
X172087123Y-106044501D01*
X172027518Y-106050908D01*
X171993331Y-106063659D01*
X171923639Y-106068642D01*
X171906669Y-106063659D01*
X171889140Y-106057121D01*
X171872483Y-106050909D01*
X171872482Y-106050908D01*
X171812883Y-106044501D01*
X171812881Y-106044500D01*
X171812873Y-106044500D01*
X171812864Y-106044500D01*
X170817129Y-106044500D01*
X170817123Y-106044501D01*
X170757518Y-106050908D01*
X170723331Y-106063659D01*
X170653639Y-106068642D01*
X170636669Y-106063659D01*
X170619140Y-106057121D01*
X170602483Y-106050909D01*
X170602482Y-106050908D01*
X170542883Y-106044501D01*
X170542881Y-106044500D01*
X170542873Y-106044500D01*
X170542864Y-106044500D01*
X169547129Y-106044500D01*
X169547123Y-106044501D01*
X169487518Y-106050908D01*
X169453331Y-106063659D01*
X169383639Y-106068642D01*
X169366669Y-106063659D01*
X169349140Y-106057121D01*
X169332483Y-106050909D01*
X169332482Y-106050908D01*
X169272883Y-106044501D01*
X169272881Y-106044500D01*
X169272873Y-106044500D01*
X169272864Y-106044500D01*
X168277129Y-106044500D01*
X168277123Y-106044501D01*
X168217518Y-106050908D01*
X168183331Y-106063659D01*
X168113639Y-106068642D01*
X168096669Y-106063659D01*
X168079140Y-106057121D01*
X168062483Y-106050909D01*
X168062482Y-106050908D01*
X168002883Y-106044501D01*
X168002881Y-106044500D01*
X168002873Y-106044500D01*
X168002864Y-106044500D01*
X167007129Y-106044500D01*
X167007123Y-106044501D01*
X166947518Y-106050908D01*
X166913331Y-106063659D01*
X166843639Y-106068642D01*
X166826669Y-106063659D01*
X166809140Y-106057121D01*
X166792483Y-106050909D01*
X166792482Y-106050908D01*
X166732883Y-106044501D01*
X166732881Y-106044500D01*
X166732873Y-106044500D01*
X166732864Y-106044500D01*
X165737129Y-106044500D01*
X165737123Y-106044501D01*
X165677520Y-106050908D01*
X165677517Y-106050908D01*
X165677517Y-106050909D01*
X165642620Y-106063925D01*
X165642617Y-106063926D01*
X165572925Y-106068909D01*
X165555952Y-106063925D01*
X165522379Y-106051403D01*
X165522372Y-106051401D01*
X165462844Y-106045000D01*
X165215000Y-106045000D01*
X165215000Y-108545000D01*
X165462828Y-108545000D01*
X165462844Y-108544999D01*
X165522372Y-108538598D01*
X165522375Y-108538597D01*
X165555949Y-108526075D01*
X165625640Y-108521089D01*
X165642619Y-108526075D01*
X165677511Y-108539089D01*
X165677512Y-108539089D01*
X165677517Y-108539091D01*
X165737127Y-108545500D01*
X166732872Y-108545499D01*
X166792483Y-108539091D01*
X166826667Y-108526340D01*
X166896358Y-108521357D01*
X166913327Y-108526338D01*
X166947517Y-108539091D01*
X167007127Y-108545500D01*
X168002872Y-108545499D01*
X168062483Y-108539091D01*
X168096667Y-108526340D01*
X168166358Y-108521357D01*
X168183327Y-108526338D01*
X168217517Y-108539091D01*
X168277127Y-108545500D01*
X169272872Y-108545499D01*
X169332483Y-108539091D01*
X169366667Y-108526340D01*
X169436358Y-108521357D01*
X169453327Y-108526338D01*
X169487517Y-108539091D01*
X169547127Y-108545500D01*
X170542872Y-108545499D01*
X170602483Y-108539091D01*
X170636667Y-108526340D01*
X170706358Y-108521357D01*
X170723327Y-108526338D01*
X170757517Y-108539091D01*
X170817127Y-108545500D01*
X171812872Y-108545499D01*
X171872483Y-108539091D01*
X171906667Y-108526340D01*
X171976358Y-108521357D01*
X171993327Y-108526338D01*
X172027517Y-108539091D01*
X172087127Y-108545500D01*
X173082872Y-108545499D01*
X173142483Y-108539091D01*
X173176667Y-108526340D01*
X173246358Y-108521357D01*
X173263327Y-108526338D01*
X173297517Y-108539091D01*
X173357127Y-108545500D01*
X174352872Y-108545499D01*
X174412483Y-108539091D01*
X174446667Y-108526340D01*
X174516358Y-108521357D01*
X174533327Y-108526338D01*
X174567517Y-108539091D01*
X174627127Y-108545500D01*
X175622872Y-108545499D01*
X175682483Y-108539091D01*
X175716667Y-108526340D01*
X175786358Y-108521357D01*
X175803327Y-108526338D01*
X175837517Y-108539091D01*
X175897127Y-108545500D01*
X176892872Y-108545499D01*
X176952483Y-108539091D01*
X177087331Y-108488796D01*
X177202546Y-108402546D01*
X177204308Y-108400191D01*
X177206662Y-108398429D01*
X177208820Y-108396272D01*
X177209130Y-108396582D01*
X177260240Y-108358319D01*
X177303577Y-108350500D01*
X180580107Y-108350500D01*
X180640529Y-108338481D01*
X180700952Y-108326463D01*
X180734292Y-108312652D01*
X180814786Y-108279312D01*
X180866009Y-108245084D01*
X180917233Y-108210858D01*
X181004358Y-108123733D01*
X181004359Y-108123731D01*
X181011425Y-108116665D01*
X181011428Y-108116661D01*
X182874229Y-106253860D01*
X182874233Y-106253858D01*
X182961358Y-106166733D01*
X183029811Y-106064286D01*
X183029812Y-106064285D01*
X183038117Y-106044233D01*
X183039621Y-106041112D01*
X183060788Y-106017669D01*
X183080614Y-105993065D01*
X183084032Y-105991927D01*
X183086446Y-105989254D01*
X183116931Y-105980976D01*
X183146908Y-105970998D01*
X183152944Y-105971197D01*
X183153874Y-105970945D01*
X183154875Y-105971261D01*
X183163930Y-105971560D01*
X183202491Y-105975500D01*
X183827508Y-105975499D01*
X183827516Y-105975498D01*
X183827519Y-105975498D01*
X183883802Y-105969748D01*
X183930297Y-105964999D01*
X183996495Y-105943062D01*
X184024955Y-105942083D01*
X184053147Y-105938030D01*
X184059425Y-105940897D01*
X184066323Y-105940660D01*
X184090794Y-105955223D01*
X184116703Y-105967055D01*
X184120434Y-105972861D01*
X184126365Y-105976391D01*
X184139077Y-106001871D01*
X184154477Y-106025833D01*
X184155871Y-106035530D01*
X184157558Y-106038911D01*
X184159500Y-106060768D01*
X184159500Y-106212595D01*
X184139815Y-106279634D01*
X184138602Y-106281486D01*
X184075609Y-106375760D01*
X184075602Y-106375773D01*
X184015264Y-106521443D01*
X184015261Y-106521455D01*
X183984500Y-106676098D01*
X183984500Y-106833791D01*
X184015261Y-106988434D01*
X184015264Y-106988446D01*
X184075602Y-107134117D01*
X184075609Y-107134130D01*
X184163210Y-107265233D01*
X184163213Y-107265237D01*
X184274704Y-107376728D01*
X184278226Y-107379618D01*
X184317564Y-107437361D01*
X184319440Y-107507205D01*
X184287249Y-107563158D01*
X182657229Y-109193181D01*
X182595906Y-109226666D01*
X182569548Y-109229500D01*
X164861352Y-109229500D01*
X164794313Y-109209815D01*
X164773671Y-109193181D01*
X164425193Y-108844703D01*
X164416130Y-108828106D01*
X164402997Y-108814495D01*
X164392592Y-108784999D01*
X164391708Y-108783380D01*
X164391283Y-108781343D01*
X164373749Y-108693189D01*
X164379978Y-108623598D01*
X164422842Y-108568421D01*
X164488732Y-108545178D01*
X164495367Y-108545000D01*
X164715000Y-108545000D01*
X164715000Y-107545000D01*
X164015000Y-107545000D01*
X164015000Y-108023613D01*
X163995315Y-108090652D01*
X163942511Y-108136407D01*
X163873353Y-108146351D01*
X163843551Y-108138175D01*
X163832905Y-108133765D01*
X163832889Y-108133761D01*
X163678245Y-108103000D01*
X163678242Y-108103000D01*
X163520558Y-108103000D01*
X163520555Y-108103000D01*
X163365910Y-108133761D01*
X163365898Y-108133764D01*
X163220227Y-108194102D01*
X163220214Y-108194109D01*
X163089111Y-108281710D01*
X163089107Y-108281713D01*
X162977613Y-108393207D01*
X162977610Y-108393211D01*
X162890009Y-108524314D01*
X162890002Y-108524327D01*
X162829664Y-108669998D01*
X162829661Y-108670010D01*
X162798900Y-108824653D01*
X162798900Y-108982346D01*
X162829661Y-109136989D01*
X162829664Y-109137001D01*
X162890002Y-109282672D01*
X162890009Y-109282685D01*
X162977610Y-109413788D01*
X162977613Y-109413792D01*
X163089107Y-109525286D01*
X163089111Y-109525289D01*
X163220214Y-109612890D01*
X163220227Y-109612897D01*
X163307630Y-109649099D01*
X163365903Y-109673237D01*
X163477116Y-109695358D01*
X163539023Y-109727741D01*
X163540603Y-109729293D01*
X164061916Y-110250606D01*
X164061945Y-110250637D01*
X164152163Y-110340855D01*
X164152167Y-110340858D01*
X164254607Y-110409307D01*
X164254611Y-110409309D01*
X164254614Y-110409311D01*
X164368448Y-110456463D01*
X164428871Y-110468481D01*
X164489293Y-110480500D01*
X182941607Y-110480500D01*
X183002029Y-110468481D01*
X183062452Y-110456463D01*
X183095792Y-110442652D01*
X183176286Y-110409312D01*
X183227509Y-110375084D01*
X183278733Y-110340858D01*
X183365858Y-110253733D01*
X183365858Y-110253731D01*
X183376066Y-110243524D01*
X183376067Y-110243521D01*
X185905857Y-107713734D01*
X185909049Y-107708958D01*
X185974311Y-107611286D01*
X186021463Y-107497452D01*
X186045500Y-107376607D01*
X186045500Y-107253394D01*
X186045500Y-102808394D01*
X186021463Y-102687548D01*
X185985585Y-102600931D01*
X185974312Y-102573715D01*
X185941705Y-102524916D01*
X185905858Y-102471267D01*
X185818733Y-102384142D01*
X185818729Y-102384139D01*
X184564318Y-101129728D01*
X184530833Y-101068405D01*
X184527999Y-101042047D01*
X184527999Y-100464998D01*
X184527998Y-100464981D01*
X184517499Y-100362203D01*
X184517498Y-100362200D01*
X184503453Y-100319815D01*
X184462314Y-100195666D01*
X184370212Y-100046344D01*
X184246156Y-99922288D01*
X184246155Y-99922287D01*
X184199402Y-99893449D01*
X184152678Y-99841500D01*
X184140500Y-99787911D01*
X184140500Y-98967087D01*
X184160185Y-98900048D01*
X184199402Y-98861548D01*
X184246156Y-98832712D01*
X184370212Y-98708656D01*
X184462314Y-98559334D01*
X184517499Y-98392797D01*
X184528000Y-98290009D01*
X184527999Y-97289992D01*
X184517499Y-97187203D01*
X184462314Y-97020666D01*
X184399541Y-96918894D01*
X184381102Y-96851504D01*
X184402025Y-96784841D01*
X184455667Y-96740071D01*
X184505081Y-96729800D01*
X187233848Y-96729800D01*
X187300887Y-96749485D01*
X187321529Y-96766119D01*
X189157571Y-98602161D01*
X189191056Y-98663484D01*
X189187822Y-98728158D01*
X189182753Y-98743757D01*
X189154384Y-98922876D01*
X189149500Y-98953713D01*
X189149500Y-99166287D01*
X189149882Y-99168697D01*
X189181842Y-99370490D01*
X189182754Y-99376243D01*
X189241482Y-99556989D01*
X189248444Y-99578414D01*
X189344951Y-99767820D01*
X189469890Y-99939786D01*
X189620213Y-100090109D01*
X189792182Y-100215050D01*
X189800946Y-100219516D01*
X189851742Y-100267491D01*
X189868536Y-100335312D01*
X189845998Y-100401447D01*
X189800946Y-100440484D01*
X189792182Y-100444949D01*
X189620213Y-100569890D01*
X189469890Y-100720213D01*
X189344951Y-100892179D01*
X189248444Y-101081585D01*
X189182753Y-101283760D01*
X189149500Y-101493713D01*
X189149500Y-101706286D01*
X189179430Y-101895261D01*
X189182754Y-101916243D01*
X189224009Y-102043213D01*
X189248444Y-102118414D01*
X189344951Y-102307820D01*
X189469890Y-102479786D01*
X189620213Y-102630109D01*
X189792182Y-102755050D01*
X189800946Y-102759516D01*
X189851742Y-102807491D01*
X189868536Y-102875312D01*
X189845998Y-102941447D01*
X189800946Y-102980484D01*
X189792182Y-102984949D01*
X189620213Y-103109890D01*
X189469890Y-103260213D01*
X189344951Y-103432179D01*
X189248444Y-103621585D01*
X189182753Y-103823760D01*
X189154385Y-104002870D01*
X189149500Y-104033713D01*
X189149500Y-104246287D01*
X189154383Y-104277116D01*
X189172254Y-104389953D01*
X189182754Y-104456243D01*
X189230247Y-104602412D01*
X189248444Y-104658414D01*
X189344951Y-104847820D01*
X189469890Y-105019786D01*
X189583818Y-105133714D01*
X189617303Y-105195037D01*
X189612319Y-105264729D01*
X189570447Y-105320662D01*
X189539471Y-105337577D01*
X189407912Y-105386646D01*
X189407906Y-105386649D01*
X189292812Y-105472809D01*
X189292809Y-105472812D01*
X189206649Y-105587906D01*
X189206645Y-105587913D01*
X189156403Y-105722620D01*
X189156401Y-105722627D01*
X189150000Y-105782155D01*
X189150000Y-106430000D01*
X190066988Y-106430000D01*
X190034075Y-106487007D01*
X190000000Y-106614174D01*
X190000000Y-106745826D01*
X190034075Y-106872993D01*
X190066988Y-106930000D01*
X189150000Y-106930000D01*
X189150000Y-107577844D01*
X189156401Y-107637372D01*
X189156403Y-107637379D01*
X189206645Y-107772086D01*
X189206649Y-107772093D01*
X189292809Y-107887187D01*
X189292812Y-107887190D01*
X189407906Y-107973350D01*
X189407913Y-107973354D01*
X189542620Y-108023596D01*
X189542627Y-108023598D01*
X189602155Y-108029999D01*
X189602172Y-108030000D01*
X190250000Y-108030000D01*
X190250000Y-107113012D01*
X190307007Y-107145925D01*
X190434174Y-107180000D01*
X190565826Y-107180000D01*
X190692993Y-107145925D01*
X190750000Y-107113012D01*
X190750000Y-108030000D01*
X191397828Y-108030000D01*
X191397844Y-108029999D01*
X191457372Y-108023598D01*
X191457379Y-108023596D01*
X191592086Y-107973354D01*
X191592093Y-107973350D01*
X191707187Y-107887190D01*
X191707190Y-107887187D01*
X191793350Y-107772093D01*
X191793354Y-107772086D01*
X191843596Y-107637379D01*
X191843598Y-107637372D01*
X191849999Y-107577844D01*
X191850000Y-107577827D01*
X191850000Y-106930000D01*
X190933012Y-106930000D01*
X190965925Y-106872993D01*
X191000000Y-106745826D01*
X191000000Y-106614174D01*
X190965925Y-106487007D01*
X190933012Y-106430000D01*
X191850000Y-106430000D01*
X191850000Y-105782172D01*
X191849999Y-105782155D01*
X191843598Y-105722627D01*
X191843596Y-105722620D01*
X191793354Y-105587913D01*
X191793350Y-105587906D01*
X191707190Y-105472812D01*
X191707187Y-105472809D01*
X191592093Y-105386649D01*
X191592088Y-105386646D01*
X191460528Y-105337577D01*
X191404595Y-105295705D01*
X191380178Y-105230241D01*
X191395030Y-105161968D01*
X191416175Y-105133720D01*
X191530104Y-105019792D01*
X191655051Y-104847816D01*
X191751557Y-104658412D01*
X191817246Y-104456243D01*
X191850500Y-104246287D01*
X191850500Y-104033713D01*
X191817246Y-103823757D01*
X191751557Y-103621588D01*
X191655051Y-103432184D01*
X191655049Y-103432181D01*
X191655048Y-103432179D01*
X191530109Y-103260213D01*
X191379786Y-103109890D01*
X191207820Y-102984951D01*
X191207115Y-102984591D01*
X191199054Y-102980485D01*
X191148259Y-102932512D01*
X191131463Y-102864692D01*
X191153999Y-102798556D01*
X191199054Y-102759515D01*
X191207816Y-102755051D01*
X191229789Y-102739086D01*
X191379786Y-102630109D01*
X191379788Y-102630106D01*
X191379792Y-102630104D01*
X191530104Y-102479792D01*
X191530106Y-102479788D01*
X191530109Y-102479786D01*
X191655048Y-102307820D01*
X191655047Y-102307820D01*
X191655051Y-102307816D01*
X191751557Y-102118412D01*
X191817246Y-101916243D01*
X191850500Y-101706287D01*
X191850500Y-101493713D01*
X191817246Y-101283757D01*
X191751557Y-101081588D01*
X191655051Y-100892184D01*
X191655049Y-100892181D01*
X191655048Y-100892179D01*
X191530109Y-100720213D01*
X191379786Y-100569890D01*
X191207820Y-100444951D01*
X191207115Y-100444591D01*
X191199054Y-100440485D01*
X191148259Y-100392512D01*
X191131463Y-100324692D01*
X191153999Y-100258556D01*
X191199054Y-100219515D01*
X191207816Y-100215051D01*
X191234497Y-100195666D01*
X191379786Y-100090109D01*
X191379788Y-100090106D01*
X191379792Y-100090104D01*
X191530104Y-99939792D01*
X191530106Y-99939788D01*
X191530109Y-99939786D01*
X191655048Y-99767820D01*
X191655047Y-99767820D01*
X191655051Y-99767816D01*
X191751557Y-99578412D01*
X191817246Y-99376243D01*
X191850500Y-99166287D01*
X191850500Y-98953713D01*
X191817246Y-98743757D01*
X191751557Y-98541588D01*
X191655051Y-98352184D01*
X191655049Y-98352181D01*
X191655048Y-98352179D01*
X191530109Y-98180213D01*
X191379786Y-98029890D01*
X191207820Y-97904951D01*
X191207115Y-97904591D01*
X191199054Y-97900485D01*
X191148259Y-97852512D01*
X191131463Y-97784692D01*
X191153999Y-97718556D01*
X191199054Y-97679515D01*
X191207816Y-97675051D01*
X191238328Y-97652883D01*
X191379786Y-97550109D01*
X191379788Y-97550106D01*
X191379792Y-97550104D01*
X191530104Y-97399792D01*
X191530106Y-97399788D01*
X191530109Y-97399786D01*
X191655048Y-97227820D01*
X191655047Y-97227820D01*
X191655051Y-97227816D01*
X191751557Y-97038412D01*
X191817246Y-96836243D01*
X191850500Y-96626287D01*
X191850500Y-96413713D01*
X191817246Y-96203757D01*
X191751557Y-96001588D01*
X191655051Y-95812184D01*
X191655049Y-95812181D01*
X191655048Y-95812179D01*
X191530109Y-95640213D01*
X191379786Y-95489890D01*
X191207820Y-95364951D01*
X191207115Y-95364591D01*
X191199054Y-95360485D01*
X191148259Y-95312512D01*
X191131463Y-95244692D01*
X191153999Y-95178556D01*
X191199054Y-95139515D01*
X191207816Y-95135051D01*
X191234497Y-95115666D01*
X191379786Y-95010109D01*
X191379788Y-95010106D01*
X191379792Y-95010104D01*
X191530104Y-94859792D01*
X191530106Y-94859788D01*
X191530109Y-94859786D01*
X191653902Y-94689397D01*
X191655051Y-94687816D01*
X191751557Y-94498412D01*
X191817246Y-94296243D01*
X191850500Y-94086287D01*
X191850500Y-93873713D01*
X191817246Y-93663757D01*
X191751557Y-93461588D01*
X191655051Y-93272184D01*
X191655049Y-93272181D01*
X191655048Y-93272179D01*
X191530109Y-93100213D01*
X191379786Y-92949890D01*
X191207820Y-92824951D01*
X191018414Y-92728444D01*
X191018413Y-92728443D01*
X191018412Y-92728443D01*
X190816243Y-92662754D01*
X190816241Y-92662753D01*
X190816240Y-92662753D01*
X190654957Y-92637208D01*
X190606287Y-92629500D01*
X190393713Y-92629500D01*
X190345042Y-92637208D01*
X190183760Y-92662753D01*
X189981585Y-92728444D01*
X189792179Y-92824951D01*
X189620213Y-92949890D01*
X189469890Y-93100213D01*
X189344951Y-93272179D01*
X189248444Y-93461585D01*
X189248443Y-93461587D01*
X189248443Y-93461588D01*
X189241742Y-93482210D01*
X189182753Y-93663760D01*
X189149500Y-93873713D01*
X189149500Y-93985548D01*
X189129815Y-94052587D01*
X189077011Y-94098342D01*
X189007853Y-94108286D01*
X188944297Y-94079261D01*
X188937819Y-94073229D01*
X187712687Y-92848097D01*
X187704960Y-92840370D01*
X187704958Y-92840367D01*
X187617833Y-92753242D01*
X187551595Y-92708983D01*
X187545445Y-92704873D01*
X187545441Y-92704870D01*
X187515390Y-92684790D01*
X187515381Y-92684785D01*
X187429952Y-92649400D01*
X187429946Y-92649398D01*
X187422234Y-92646204D01*
X187401552Y-92637637D01*
X187340025Y-92625399D01*
X187336249Y-92624648D01*
X187336242Y-92624646D01*
X187280711Y-92613600D01*
X187280707Y-92613600D01*
X187280706Y-92613600D01*
X184414630Y-92613600D01*
X184347591Y-92593915D01*
X184301836Y-92541111D01*
X184291892Y-92471953D01*
X184320917Y-92408397D01*
X184326949Y-92401919D01*
X184336741Y-92392127D01*
X184370212Y-92358656D01*
X184462314Y-92209334D01*
X184517499Y-92042797D01*
X184528000Y-91940009D01*
X184527999Y-90939992D01*
X184517499Y-90837203D01*
X184462314Y-90670666D01*
X184370212Y-90521344D01*
X184246156Y-90397288D01*
X184096834Y-90305186D01*
X183930297Y-90250001D01*
X183930295Y-90250000D01*
X183827516Y-90239500D01*
X183250452Y-90239500D01*
X183183413Y-90219815D01*
X183162771Y-90203181D01*
X182547850Y-89588260D01*
X182540560Y-89580970D01*
X182540558Y-89580967D01*
X182453433Y-89493842D01*
X182402209Y-89459615D01*
X182350986Y-89425388D01*
X182350983Y-89425386D01*
X182350980Y-89425385D01*
X182276863Y-89394686D01*
X182270492Y-89392047D01*
X182237152Y-89378237D01*
X182182205Y-89367307D01*
X182177122Y-89365837D01*
X182169262Y-89360831D01*
X182142684Y-89349822D01*
X182023685Y-89270309D01*
X182023672Y-89270302D01*
X181878001Y-89209964D01*
X181877989Y-89209961D01*
X181723345Y-89179200D01*
X181723342Y-89179200D01*
X181565658Y-89179200D01*
X181565655Y-89179200D01*
X181411010Y-89209961D01*
X181410998Y-89209964D01*
X181265327Y-89270302D01*
X181265314Y-89270309D01*
X181134211Y-89357910D01*
X181134207Y-89357913D01*
X181022713Y-89469407D01*
X181022710Y-89469411D01*
X180935109Y-89600514D01*
X180935104Y-89600523D01*
X180875908Y-89743438D01*
X180832067Y-89797841D01*
X180765773Y-89819906D01*
X180698074Y-89802627D01*
X180675383Y-89785000D01*
X178175000Y-89785000D01*
X178175000Y-90032844D01*
X178181401Y-90092372D01*
X178181403Y-90092379D01*
X178193925Y-90125952D01*
X178198909Y-90195643D01*
X178193925Y-90212617D01*
X178180909Y-90247514D01*
X178180908Y-90247516D01*
X178174501Y-90307116D01*
X178174500Y-90307135D01*
X178174500Y-91302870D01*
X178174501Y-91302876D01*
X178180908Y-91362482D01*
X178185440Y-91374631D01*
X178190424Y-91444323D01*
X178156939Y-91505646D01*
X178138149Y-91521066D01*
X178036267Y-91589141D01*
X178036263Y-91589144D01*
X177401267Y-92224143D01*
X177314145Y-92311264D01*
X177314139Y-92311272D01*
X177245690Y-92413709D01*
X177245685Y-92413718D01*
X177198540Y-92527538D01*
X177198535Y-92527555D01*
X177174500Y-92648388D01*
X177174500Y-92771606D01*
X177174853Y-92775191D01*
X177175450Y-92787345D01*
X177175450Y-93437650D01*
X177155765Y-93504689D01*
X177154576Y-93506503D01*
X177152485Y-93509634D01*
X177091559Y-93600815D01*
X177091552Y-93600828D01*
X177031214Y-93746498D01*
X177031211Y-93746510D01*
X177000450Y-93901153D01*
X177000450Y-94058846D01*
X177031211Y-94213489D01*
X177031214Y-94213501D01*
X177091552Y-94359172D01*
X177091559Y-94359185D01*
X177179160Y-94490288D01*
X177179163Y-94490292D01*
X177290657Y-94601786D01*
X177290661Y-94601789D01*
X177421764Y-94689390D01*
X177421777Y-94689397D01*
X177567448Y-94749735D01*
X177567453Y-94749737D01*
X177705111Y-94777119D01*
X177722103Y-94780499D01*
X177722106Y-94780500D01*
X177722108Y-94780500D01*
X177879794Y-94780500D01*
X178026308Y-94751356D01*
X178095900Y-94757583D01*
X178151077Y-94800446D01*
X178174322Y-94866335D01*
X178174500Y-94872972D01*
X178174500Y-95112869D01*
X178174501Y-95112876D01*
X178180908Y-95172481D01*
X178193659Y-95206669D01*
X178198642Y-95276361D01*
X178193659Y-95293331D01*
X178180908Y-95327518D01*
X178174501Y-95387116D01*
X178174500Y-95387135D01*
X178174500Y-96382870D01*
X178174501Y-96382876D01*
X178180908Y-96442481D01*
X178193659Y-96476669D01*
X178198642Y-96546361D01*
X178193659Y-96563331D01*
X178180908Y-96597518D01*
X178174800Y-96654334D01*
X178174501Y-96657123D01*
X178174500Y-96657135D01*
X178174500Y-97652870D01*
X178174501Y-97652876D01*
X178180908Y-97712481D01*
X178193659Y-97746669D01*
X178198642Y-97816361D01*
X178193659Y-97833331D01*
X178180908Y-97867518D01*
X178177364Y-97900486D01*
X178174501Y-97927123D01*
X178174500Y-97927135D01*
X178174500Y-98922870D01*
X178174501Y-98922876D01*
X178180908Y-98982481D01*
X178193659Y-99016669D01*
X178198642Y-99086361D01*
X178193659Y-99103331D01*
X178180908Y-99137518D01*
X178177556Y-99168701D01*
X178174501Y-99197123D01*
X178174500Y-99197135D01*
X178174500Y-100192870D01*
X178174501Y-100192876D01*
X178180908Y-100252481D01*
X178193659Y-100286669D01*
X178198642Y-100356361D01*
X178193659Y-100373331D01*
X178180908Y-100407518D01*
X178174501Y-100467116D01*
X178174500Y-100467135D01*
X178174500Y-101462870D01*
X178174501Y-101462876D01*
X178180908Y-101522481D01*
X178193659Y-101556669D01*
X178198642Y-101626361D01*
X178193659Y-101643331D01*
X178180908Y-101677518D01*
X178174501Y-101737116D01*
X178174500Y-101737135D01*
X178174500Y-102732870D01*
X178174501Y-102732876D01*
X178180908Y-102792481D01*
X178193659Y-102826669D01*
X178198642Y-102896361D01*
X178193659Y-102913331D01*
X178180908Y-102947518D01*
X178174501Y-103007116D01*
X178174500Y-103007135D01*
X178174500Y-104002870D01*
X178174501Y-104002876D01*
X178180908Y-104062481D01*
X178193659Y-104096669D01*
X178198642Y-104166361D01*
X178193659Y-104183331D01*
X178180908Y-104217518D01*
X178174501Y-104277116D01*
X178174500Y-104277135D01*
X178174500Y-105272870D01*
X178174501Y-105272876D01*
X178180908Y-105332481D01*
X178193659Y-105366669D01*
X178194992Y-105385321D01*
X178201275Y-105402936D01*
X178197865Y-105425498D01*
X178198642Y-105436361D01*
X178198250Y-105438100D01*
X178196442Y-105445867D01*
X178180909Y-105487517D01*
X178175888Y-105534209D01*
X178174180Y-105541554D01*
X178160556Y-105565670D01*
X178149957Y-105591261D01*
X178143613Y-105595665D01*
X178139816Y-105602388D01*
X178115319Y-105615310D01*
X178092564Y-105631109D01*
X178084846Y-105631384D01*
X178078017Y-105634987D01*
X178050421Y-105632613D01*
X178022739Y-105633602D01*
X178015770Y-105629633D01*
X178008404Y-105629000D01*
X177990760Y-105615391D01*
X177965725Y-105601135D01*
X176734793Y-104370203D01*
X176701308Y-104308880D01*
X176700887Y-104306864D01*
X176678737Y-104195503D01*
X176649457Y-104124814D01*
X176618397Y-104049827D01*
X176618390Y-104049814D01*
X176530789Y-103918711D01*
X176530786Y-103918707D01*
X176419292Y-103807213D01*
X176419288Y-103807210D01*
X176288185Y-103719609D01*
X176288172Y-103719602D01*
X176142501Y-103659264D01*
X176142489Y-103659261D01*
X175987845Y-103628500D01*
X175987842Y-103628500D01*
X175830158Y-103628500D01*
X175830155Y-103628500D01*
X175675510Y-103659261D01*
X175675498Y-103659264D01*
X175529827Y-103719602D01*
X175529814Y-103719609D01*
X175398711Y-103807210D01*
X175398707Y-103807213D01*
X175287213Y-103918707D01*
X175287210Y-103918711D01*
X175199609Y-104049814D01*
X175199604Y-104049824D01*
X175190024Y-104072953D01*
X175146182Y-104127357D01*
X175079888Y-104149421D01*
X175075463Y-104149500D01*
X164775452Y-104149500D01*
X164708413Y-104129815D01*
X164687771Y-104113181D01*
X164076771Y-103502181D01*
X164043286Y-103440858D01*
X164048270Y-103371166D01*
X164090142Y-103315233D01*
X164155606Y-103290816D01*
X164164452Y-103290500D01*
X176459750Y-103290500D01*
X176526789Y-103310185D01*
X176528641Y-103311398D01*
X176622921Y-103374394D01*
X176622923Y-103374395D01*
X176622927Y-103374397D01*
X176762427Y-103432179D01*
X176768603Y-103434737D01*
X176923253Y-103465499D01*
X176923256Y-103465500D01*
X176923258Y-103465500D01*
X177080944Y-103465500D01*
X177080945Y-103465499D01*
X177235597Y-103434737D01*
X177381279Y-103374394D01*
X177512389Y-103286789D01*
X177623889Y-103175289D01*
X177711494Y-103044179D01*
X177771837Y-102898497D01*
X177802600Y-102743842D01*
X177802600Y-102586158D01*
X177802600Y-102586155D01*
X177802599Y-102586153D01*
X177800125Y-102573715D01*
X177771837Y-102431503D01*
X177752220Y-102384142D01*
X177711497Y-102285827D01*
X177711490Y-102285814D01*
X177623889Y-102154711D01*
X177623886Y-102154707D01*
X177512392Y-102043213D01*
X177512388Y-102043210D01*
X177381285Y-101955609D01*
X177381272Y-101955602D01*
X177235601Y-101895264D01*
X177235589Y-101895261D01*
X177080945Y-101864500D01*
X177080942Y-101864500D01*
X176923258Y-101864500D01*
X176923255Y-101864500D01*
X176768610Y-101895261D01*
X176768598Y-101895264D01*
X176622927Y-101955602D01*
X176622915Y-101955609D01*
X176528641Y-102018602D01*
X176461964Y-102039480D01*
X176459750Y-102039500D01*
X163299499Y-102039500D01*
X163291324Y-102037099D01*
X163282902Y-102038384D01*
X163258302Y-102027403D01*
X163232460Y-102019815D01*
X163226882Y-102013377D01*
X163219100Y-102009904D01*
X163204341Y-101987364D01*
X163186705Y-101967011D01*
X163184494Y-101957053D01*
X163180825Y-101951450D01*
X163175960Y-101918618D01*
X163175504Y-101916560D01*
X163175499Y-101915975D01*
X163175499Y-101737128D01*
X163173838Y-101721679D01*
X163173786Y-101715560D01*
X163181735Y-101687603D01*
X163186896Y-101658997D01*
X163191177Y-101654398D01*
X163192896Y-101648355D01*
X163214699Y-101629133D01*
X163234506Y-101607859D01*
X163240785Y-101606136D01*
X163245307Y-101602150D01*
X163267844Y-101598712D01*
X163297781Y-101590500D01*
X175644307Y-101590500D01*
X175704729Y-101578481D01*
X175765152Y-101566463D01*
X175798492Y-101552652D01*
X175878986Y-101519312D01*
X175930209Y-101485084D01*
X175981433Y-101450858D01*
X176068558Y-101363733D01*
X176068559Y-101363731D01*
X176075625Y-101356665D01*
X176075628Y-101356661D01*
X176753099Y-100679189D01*
X176814420Y-100645706D01*
X176864966Y-100645255D01*
X176923258Y-100656850D01*
X177080944Y-100656850D01*
X177080945Y-100656849D01*
X177235597Y-100626087D01*
X177381279Y-100565744D01*
X177512389Y-100478139D01*
X177623889Y-100366639D01*
X177711494Y-100235529D01*
X177771837Y-100089847D01*
X177802600Y-99935192D01*
X177802600Y-99777508D01*
X177802600Y-99777505D01*
X177802599Y-99777503D01*
X177800013Y-99764501D01*
X177771837Y-99622853D01*
X177761790Y-99598597D01*
X177711497Y-99477177D01*
X177711490Y-99477164D01*
X177623889Y-99346061D01*
X177623886Y-99346057D01*
X177512392Y-99234563D01*
X177512388Y-99234560D01*
X177381285Y-99146959D01*
X177381272Y-99146952D01*
X177235601Y-99086614D01*
X177235589Y-99086611D01*
X177080945Y-99055850D01*
X177080942Y-99055850D01*
X176923258Y-99055850D01*
X176923255Y-99055850D01*
X176768610Y-99086611D01*
X176768598Y-99086614D01*
X176622927Y-99146952D01*
X176622914Y-99146959D01*
X176491814Y-99234558D01*
X176462468Y-99263903D01*
X176422245Y-99290779D01*
X176395065Y-99302038D01*
X176395064Y-99302039D01*
X176292618Y-99370490D01*
X176249055Y-99414053D01*
X176205492Y-99457617D01*
X176205489Y-99457620D01*
X175769661Y-99893449D01*
X175359929Y-100303181D01*
X175298606Y-100336666D01*
X175272248Y-100339500D01*
X163297781Y-100339500D01*
X163230742Y-100319815D01*
X163184987Y-100267011D01*
X163174492Y-100202243D01*
X163175500Y-100192873D01*
X163175499Y-99197128D01*
X163170739Y-99152844D01*
X166825000Y-99152844D01*
X166831401Y-99212372D01*
X166831403Y-99212379D01*
X166881645Y-99347086D01*
X166881649Y-99347093D01*
X166967809Y-99462187D01*
X166967812Y-99462190D01*
X167082906Y-99548350D01*
X167082913Y-99548354D01*
X167217620Y-99598596D01*
X167217627Y-99598598D01*
X167277155Y-99604999D01*
X167277172Y-99605000D01*
X167525000Y-99605000D01*
X168025000Y-99605000D01*
X168272828Y-99605000D01*
X168272844Y-99604999D01*
X168332372Y-99598598D01*
X168332376Y-99598597D01*
X168431666Y-99561564D01*
X168501358Y-99556580D01*
X168518334Y-99561564D01*
X168617623Y-99598597D01*
X168617627Y-99598598D01*
X168677155Y-99604999D01*
X168677172Y-99605000D01*
X168925000Y-99605000D01*
X169425000Y-99605000D01*
X169672828Y-99605000D01*
X169672844Y-99604999D01*
X169732372Y-99598598D01*
X169732376Y-99598597D01*
X169831666Y-99561564D01*
X169901358Y-99556580D01*
X169918334Y-99561564D01*
X170017623Y-99598597D01*
X170017627Y-99598598D01*
X170077155Y-99604999D01*
X170077172Y-99605000D01*
X170325000Y-99605000D01*
X170825000Y-99605000D01*
X171072828Y-99605000D01*
X171072844Y-99604999D01*
X171132372Y-99598598D01*
X171132379Y-99598596D01*
X171267086Y-99548354D01*
X171267093Y-99548350D01*
X171382187Y-99462190D01*
X171382190Y-99462187D01*
X171468350Y-99347093D01*
X171468354Y-99347086D01*
X171518596Y-99212379D01*
X171518598Y-99212372D01*
X171524999Y-99152844D01*
X171525000Y-99152827D01*
X171525000Y-98905000D01*
X170825000Y-98905000D01*
X170825000Y-99605000D01*
X170325000Y-99605000D01*
X170325000Y-98905000D01*
X169425000Y-98905000D01*
X169425000Y-99605000D01*
X168925000Y-99605000D01*
X168925000Y-98905000D01*
X168025000Y-98905000D01*
X168025000Y-99605000D01*
X167525000Y-99605000D01*
X167525000Y-98905000D01*
X166825000Y-98905000D01*
X166825000Y-99152844D01*
X163170739Y-99152844D01*
X163169091Y-99137517D01*
X163156340Y-99103331D01*
X163149569Y-99043927D01*
X163151401Y-99029912D01*
X163169091Y-98982483D01*
X163175500Y-98922873D01*
X163175499Y-97927128D01*
X163169091Y-97867517D01*
X163156340Y-97833332D01*
X163151357Y-97763642D01*
X163154527Y-97752844D01*
X166825000Y-97752844D01*
X166831401Y-97812372D01*
X166831403Y-97812383D01*
X166868434Y-97911668D01*
X166873418Y-97981360D01*
X166868434Y-97998332D01*
X166831403Y-98097616D01*
X166831401Y-98097627D01*
X166825000Y-98157155D01*
X166825000Y-98405000D01*
X167525000Y-98405000D01*
X168025000Y-98405000D01*
X168925000Y-98405000D01*
X169425000Y-98405000D01*
X170325000Y-98405000D01*
X170825000Y-98405000D01*
X171525000Y-98405000D01*
X171525000Y-98157172D01*
X171524999Y-98157155D01*
X171518598Y-98097627D01*
X171518597Y-98097623D01*
X171481564Y-97998334D01*
X171476580Y-97928642D01*
X171481564Y-97911666D01*
X171518597Y-97812376D01*
X171518598Y-97812372D01*
X171524999Y-97752844D01*
X171525000Y-97752827D01*
X171525000Y-97505000D01*
X170825000Y-97505000D01*
X170825000Y-98405000D01*
X170325000Y-98405000D01*
X170325000Y-97505000D01*
X169425000Y-97505000D01*
X169425000Y-98405000D01*
X168925000Y-98405000D01*
X168925000Y-97505000D01*
X168025000Y-97505000D01*
X168025000Y-98405000D01*
X167525000Y-98405000D01*
X167525000Y-97505000D01*
X166825000Y-97505000D01*
X166825000Y-97752844D01*
X163154527Y-97752844D01*
X163156340Y-97746669D01*
X163169091Y-97712483D01*
X163175500Y-97652873D01*
X163175499Y-97121818D01*
X163175499Y-96657129D01*
X163175498Y-96657123D01*
X163175497Y-96657116D01*
X163169091Y-96597517D01*
X163156340Y-96563332D01*
X163151357Y-96493642D01*
X163156340Y-96476669D01*
X163169091Y-96442483D01*
X163175500Y-96382873D01*
X163175500Y-96352844D01*
X166825000Y-96352844D01*
X166831401Y-96412372D01*
X166831403Y-96412383D01*
X166868434Y-96511668D01*
X166873418Y-96581360D01*
X166868434Y-96598332D01*
X166831403Y-96697616D01*
X166831401Y-96697627D01*
X166825000Y-96757155D01*
X166825000Y-97005000D01*
X167525000Y-97005000D01*
X168025000Y-97005000D01*
X168925000Y-97005000D01*
X169425000Y-97005000D01*
X170325000Y-97005000D01*
X170825000Y-97005000D01*
X171525000Y-97005000D01*
X171525000Y-96757172D01*
X171524999Y-96757155D01*
X171518598Y-96697627D01*
X171518597Y-96697623D01*
X171481564Y-96598334D01*
X171476580Y-96528642D01*
X171481564Y-96511666D01*
X171518597Y-96412376D01*
X171518598Y-96412372D01*
X171524999Y-96352844D01*
X171525000Y-96352827D01*
X171525000Y-96105000D01*
X170825000Y-96105000D01*
X170825000Y-97005000D01*
X170325000Y-97005000D01*
X170325000Y-96105000D01*
X169425000Y-96105000D01*
X169425000Y-97005000D01*
X168925000Y-97005000D01*
X168925000Y-96105000D01*
X168025000Y-96105000D01*
X168025000Y-97005000D01*
X167525000Y-97005000D01*
X167525000Y-96105000D01*
X166825000Y-96105000D01*
X166825000Y-96352844D01*
X163175500Y-96352844D01*
X163175499Y-95853511D01*
X163175499Y-95387129D01*
X163175498Y-95387118D01*
X163174150Y-95374577D01*
X163174149Y-95374575D01*
X163172277Y-95357155D01*
X166825000Y-95357155D01*
X166825000Y-95605000D01*
X167525000Y-95605000D01*
X168025000Y-95605000D01*
X168925000Y-95605000D01*
X169425000Y-95605000D01*
X170325000Y-95605000D01*
X170825000Y-95605000D01*
X171525000Y-95605000D01*
X171525000Y-95357172D01*
X171524999Y-95357155D01*
X171518598Y-95297627D01*
X171518596Y-95297620D01*
X171468354Y-95162913D01*
X171468350Y-95162906D01*
X171382190Y-95047812D01*
X171382187Y-95047809D01*
X171267093Y-94961649D01*
X171267086Y-94961645D01*
X171132379Y-94911403D01*
X171132372Y-94911401D01*
X171072844Y-94905000D01*
X170825000Y-94905000D01*
X170825000Y-95605000D01*
X170325000Y-95605000D01*
X170325000Y-94905000D01*
X170077155Y-94905000D01*
X170017627Y-94911401D01*
X170017616Y-94911403D01*
X169918332Y-94948434D01*
X169848640Y-94953418D01*
X169831668Y-94948434D01*
X169732383Y-94911403D01*
X169732372Y-94911401D01*
X169672844Y-94905000D01*
X169425000Y-94905000D01*
X169425000Y-95605000D01*
X168925000Y-95605000D01*
X168925000Y-94905000D01*
X168677155Y-94905000D01*
X168617627Y-94911401D01*
X168617616Y-94911403D01*
X168518332Y-94948434D01*
X168448640Y-94953418D01*
X168431668Y-94948434D01*
X168332383Y-94911403D01*
X168332372Y-94911401D01*
X168272844Y-94905000D01*
X168025000Y-94905000D01*
X168025000Y-95605000D01*
X167525000Y-95605000D01*
X167525000Y-94905000D01*
X167277155Y-94905000D01*
X167217627Y-94911401D01*
X167217620Y-94911403D01*
X167082913Y-94961645D01*
X167082906Y-94961649D01*
X166967812Y-95047809D01*
X166967809Y-95047812D01*
X166881649Y-95162906D01*
X166881645Y-95162913D01*
X166831403Y-95297620D01*
X166831401Y-95297627D01*
X166825000Y-95357155D01*
X163172277Y-95357155D01*
X163169091Y-95327517D01*
X163153544Y-95285834D01*
X163151736Y-95278046D01*
X163153301Y-95250830D01*
X163151357Y-95223642D01*
X163155719Y-95208781D01*
X163155748Y-95208292D01*
X163155941Y-95208025D01*
X163156340Y-95206669D01*
X163169091Y-95172483D01*
X163175500Y-95112873D01*
X163175499Y-94117128D01*
X163169091Y-94057517D01*
X163156340Y-94023332D01*
X163151357Y-93953642D01*
X163156338Y-93936672D01*
X163169091Y-93902483D01*
X163175500Y-93842873D01*
X163175499Y-93563749D01*
X163181737Y-93542504D01*
X163183317Y-93520417D01*
X163191388Y-93509634D01*
X163195183Y-93496712D01*
X163211919Y-93482210D01*
X163225189Y-93464484D01*
X163237807Y-93459777D01*
X163247987Y-93450957D01*
X163269905Y-93447805D01*
X163290653Y-93440067D01*
X163303813Y-93442929D01*
X163317146Y-93441013D01*
X163337288Y-93450212D01*
X163358926Y-93454919D01*
X163376652Y-93468189D01*
X163380701Y-93470038D01*
X163387180Y-93476070D01*
X163551205Y-93640095D01*
X163584690Y-93701418D01*
X163585141Y-93703585D01*
X163607261Y-93814789D01*
X163607264Y-93814801D01*
X163667602Y-93960472D01*
X163667609Y-93960485D01*
X163755210Y-94091588D01*
X163755213Y-94091592D01*
X163866707Y-94203086D01*
X163866711Y-94203089D01*
X163997814Y-94290690D01*
X163997827Y-94290697D01*
X164121997Y-94342129D01*
X164143503Y-94351037D01*
X164285635Y-94379309D01*
X164298153Y-94381799D01*
X164298156Y-94381800D01*
X164298158Y-94381800D01*
X164455844Y-94381800D01*
X164455845Y-94381799D01*
X164610497Y-94351037D01*
X164726571Y-94302958D01*
X164756172Y-94290697D01*
X164756172Y-94290696D01*
X164756179Y-94290694D01*
X164887289Y-94203089D01*
X164998789Y-94091589D01*
X165086394Y-93960479D01*
X165146737Y-93814797D01*
X165177500Y-93660142D01*
X165177500Y-93502458D01*
X165177500Y-93502455D01*
X165177499Y-93502453D01*
X165167256Y-93450957D01*
X165146737Y-93347803D01*
X165112186Y-93264389D01*
X165086397Y-93202127D01*
X165086390Y-93202114D01*
X164998789Y-93071011D01*
X164998786Y-93071007D01*
X164887292Y-92959513D01*
X164887288Y-92959510D01*
X164756185Y-92871909D01*
X164756172Y-92871902D01*
X164610501Y-92811564D01*
X164610489Y-92811561D01*
X164499285Y-92789441D01*
X164437374Y-92757056D01*
X164435795Y-92755505D01*
X163790898Y-92110608D01*
X163790890Y-92110595D01*
X163790889Y-92110597D01*
X163699436Y-92019144D01*
X163699428Y-92019138D01*
X163678871Y-92005402D01*
X163634065Y-91951790D01*
X163625358Y-91882465D01*
X163655512Y-91819438D01*
X163714955Y-91782718D01*
X163747761Y-91778300D01*
X163834650Y-91778300D01*
X163856343Y-91784670D01*
X163878883Y-91786458D01*
X163889223Y-91794324D01*
X163901689Y-91797985D01*
X163903541Y-91799198D01*
X163997821Y-91862194D01*
X163997823Y-91862195D01*
X163997827Y-91862197D01*
X164114271Y-91910429D01*
X164143503Y-91922537D01*
X164285027Y-91950688D01*
X164298153Y-91953299D01*
X164298156Y-91953300D01*
X164298158Y-91953300D01*
X164455844Y-91953300D01*
X164455845Y-91953299D01*
X164610497Y-91922537D01*
X164756179Y-91862194D01*
X164887289Y-91774589D01*
X164998789Y-91663089D01*
X165086394Y-91531979D01*
X165146737Y-91386297D01*
X165177500Y-91231642D01*
X165177500Y-91073958D01*
X165177500Y-91073955D01*
X165177499Y-91073953D01*
X165156735Y-90969568D01*
X165146737Y-90919303D01*
X165135717Y-90892697D01*
X165086397Y-90773627D01*
X165086390Y-90773614D01*
X164998789Y-90642511D01*
X164998786Y-90642507D01*
X164887292Y-90531013D01*
X164887288Y-90531010D01*
X164756185Y-90443409D01*
X164756172Y-90443402D01*
X164610501Y-90383064D01*
X164610489Y-90383061D01*
X164455845Y-90352300D01*
X164455842Y-90352300D01*
X164298158Y-90352300D01*
X164298155Y-90352300D01*
X164143510Y-90383061D01*
X164143498Y-90383064D01*
X163997827Y-90443402D01*
X163997815Y-90443409D01*
X163903541Y-90506402D01*
X163836864Y-90527280D01*
X163834650Y-90527300D01*
X163299499Y-90527300D01*
X163297837Y-90526812D01*
X163296163Y-90527255D01*
X163264434Y-90517003D01*
X163232460Y-90507615D01*
X163231326Y-90506306D01*
X163229677Y-90505774D01*
X163208521Y-90479989D01*
X163186705Y-90454811D01*
X163186107Y-90452668D01*
X163185360Y-90451758D01*
X163184032Y-90445236D01*
X163176331Y-90417639D01*
X163175499Y-90410492D01*
X163175499Y-90307128D01*
X163169091Y-90247517D01*
X163150824Y-90198543D01*
X163149088Y-90183623D01*
X163152553Y-90163395D01*
X163151090Y-90142926D01*
X163156075Y-90125949D01*
X163168597Y-90092375D01*
X163168598Y-90092372D01*
X163174999Y-90032844D01*
X163175000Y-90032827D01*
X163175000Y-89785000D01*
X160675000Y-89785000D01*
X160675000Y-90032844D01*
X160681401Y-90092372D01*
X160681403Y-90092379D01*
X160693925Y-90125952D01*
X160698909Y-90195643D01*
X160693925Y-90212617D01*
X160680909Y-90247514D01*
X160680908Y-90247516D01*
X160674501Y-90307116D01*
X160674500Y-90307135D01*
X160674500Y-90485500D01*
X160654815Y-90552539D01*
X160602011Y-90598294D01*
X160550500Y-90609500D01*
X159337741Y-90609500D01*
X159337721Y-90609499D01*
X159331607Y-90609499D01*
X159208394Y-90609499D01*
X159107597Y-90629548D01*
X159107592Y-90629548D01*
X159087548Y-90633536D01*
X159087545Y-90633537D01*
X159058865Y-90645417D01*
X159058854Y-90645422D01*
X159053781Y-90647524D01*
X158973715Y-90680688D01*
X158910661Y-90722819D01*
X158904738Y-90725913D01*
X158876761Y-90731458D01*
X158849549Y-90739980D01*
X158847334Y-90740000D01*
X156890001Y-90740000D01*
X156890001Y-90789986D01*
X156900494Y-90892697D01*
X156955641Y-91059119D01*
X156955643Y-91059124D01*
X157047684Y-91208345D01*
X157171655Y-91332316D01*
X157171659Y-91332319D01*
X157174656Y-91334168D01*
X157176279Y-91335972D01*
X157177323Y-91336798D01*
X157177181Y-91336976D01*
X157221381Y-91386116D01*
X157232602Y-91455079D01*
X157204759Y-91519161D01*
X157174661Y-91545241D01*
X157171349Y-91547283D01*
X157171343Y-91547288D01*
X157047289Y-91671342D01*
X156955187Y-91820663D01*
X156955186Y-91820666D01*
X156900001Y-91987203D01*
X156900001Y-91987204D01*
X156900000Y-91987204D01*
X156889500Y-92089983D01*
X156889500Y-92690001D01*
X156889501Y-92690019D01*
X156900000Y-92792796D01*
X156900001Y-92792799D01*
X156955185Y-92959331D01*
X156955187Y-92959336D01*
X156955295Y-92959511D01*
X157047288Y-93108656D01*
X157171344Y-93232712D01*
X157320666Y-93324814D01*
X157404505Y-93352595D01*
X157461948Y-93392366D01*
X157488772Y-93456882D01*
X157489500Y-93470300D01*
X157489500Y-94583160D01*
X157469815Y-94650199D01*
X157417011Y-94695954D01*
X157404504Y-94700866D01*
X157255668Y-94750185D01*
X157255663Y-94750187D01*
X157106342Y-94842289D01*
X156982289Y-94966342D01*
X156890187Y-95115663D01*
X156890185Y-95115668D01*
X156879997Y-95146414D01*
X156835001Y-95282203D01*
X156835001Y-95282204D01*
X156835000Y-95282204D01*
X156824500Y-95384983D01*
X156824500Y-95962046D01*
X156804815Y-96029085D01*
X156788181Y-96049727D01*
X152767093Y-100070815D01*
X152705770Y-100104300D01*
X152668432Y-100106647D01*
X152612593Y-100101683D01*
X152588037Y-100099500D01*
X152588033Y-100099500D01*
X149671971Y-100099500D01*
X149671965Y-100099500D01*
X149671964Y-100099501D01*
X149660316Y-100100536D01*
X149552584Y-100110113D01*
X149356954Y-100166089D01*
X149287747Y-100202240D01*
X149176593Y-100260302D01*
X149176591Y-100260303D01*
X149176590Y-100260304D01*
X149018890Y-100388890D01*
X148890304Y-100546590D01*
X148890302Y-100546593D01*
X148880297Y-100565747D01*
X148796089Y-100726954D01*
X148740114Y-100922583D01*
X148740113Y-100922586D01*
X148733595Y-100995903D01*
X148729651Y-101040271D01*
X148729500Y-101041966D01*
X148729500Y-102158028D01*
X148729500Y-102158033D01*
X148729501Y-102158036D01*
X148730165Y-102165500D01*
X148740113Y-102277415D01*
X148796089Y-102473045D01*
X148796090Y-102473048D01*
X148796091Y-102473049D01*
X148890302Y-102653407D01*
X148890304Y-102653409D01*
X149018890Y-102811109D01*
X149084605Y-102864692D01*
X149176593Y-102939698D01*
X149356951Y-103033909D01*
X149552582Y-103089886D01*
X149671963Y-103100500D01*
X150380500Y-103100499D01*
X150447539Y-103120183D01*
X150493294Y-103172987D01*
X150504500Y-103224499D01*
X150504500Y-104999947D01*
X150484815Y-105066986D01*
X150468181Y-105087628D01*
X149612429Y-105943381D01*
X149551106Y-105976866D01*
X149524748Y-105979700D01*
X148113889Y-105979700D01*
X147993053Y-106003735D01*
X147993041Y-106003739D01*
X147960762Y-106017109D01*
X147945897Y-106023267D01*
X147879219Y-106050885D01*
X147879217Y-106050886D01*
X147776766Y-106119341D01*
X147776763Y-106119344D01*
X147466109Y-106430000D01*
X147379069Y-106517040D01*
X147379067Y-106517042D01*
X147291942Y-106604167D01*
X147259795Y-106652278D01*
X147223488Y-106706614D01*
X147223486Y-106706617D01*
X147223485Y-106706619D01*
X147201259Y-106760279D01*
X147201257Y-106760283D01*
X147197901Y-106768388D01*
X147176337Y-106820448D01*
X147152300Y-106941294D01*
X145913966Y-106941294D01*
X145913966Y-90353389D01*
X148407000Y-90353389D01*
X148407000Y-91687870D01*
X148407001Y-91687876D01*
X148413408Y-91747483D01*
X148459726Y-91871667D01*
X148464710Y-91941359D01*
X148459726Y-91958333D01*
X148413408Y-92082517D01*
X148407001Y-92142116D01*
X148407000Y-92142135D01*
X148407000Y-93737870D01*
X148407001Y-93737876D01*
X148413409Y-93797484D01*
X148450401Y-93896668D01*
X148455385Y-93966360D01*
X148450401Y-93983332D01*
X148413409Y-94082514D01*
X148413408Y-94082516D01*
X148407001Y-94142116D01*
X148407000Y-94142135D01*
X148407000Y-95737870D01*
X148407001Y-95737876D01*
X148413408Y-95797483D01*
X148459726Y-95921667D01*
X148464710Y-95991359D01*
X148459726Y-96008333D01*
X148413408Y-96132517D01*
X148407001Y-96192116D01*
X148407000Y-96192135D01*
X148407000Y-97526610D01*
X148430510Y-97675051D01*
X148434098Y-97697701D01*
X148487627Y-97862445D01*
X148566268Y-98016788D01*
X148668086Y-98156928D01*
X148790572Y-98279414D01*
X148930712Y-98381232D01*
X149085055Y-98459873D01*
X149249799Y-98513402D01*
X149420889Y-98540500D01*
X149420890Y-98540500D01*
X150294110Y-98540500D01*
X150294111Y-98540500D01*
X150465201Y-98513402D01*
X150629945Y-98459873D01*
X150784288Y-98381232D01*
X150924428Y-98279414D01*
X151046914Y-98156928D01*
X151148732Y-98016788D01*
X151227373Y-97862445D01*
X151280902Y-97697701D01*
X151308000Y-97526611D01*
X151308000Y-97353389D01*
X151308000Y-97328727D01*
X151307999Y-97328721D01*
X151307999Y-97186786D01*
X151327684Y-97119747D01*
X151380488Y-97073992D01*
X151449646Y-97064048D01*
X151513202Y-97093073D01*
X151532317Y-97113901D01*
X151622741Y-97238359D01*
X151759141Y-97374759D01*
X151915198Y-97488141D01*
X152087071Y-97575715D01*
X152270528Y-97635324D01*
X152461051Y-97665500D01*
X152461052Y-97665500D01*
X152653948Y-97665500D01*
X152653949Y-97665500D01*
X152844472Y-97635324D01*
X153027929Y-97575715D01*
X153199802Y-97488141D01*
X153355859Y-97374759D01*
X153492259Y-97238359D01*
X153605641Y-97082302D01*
X153693215Y-96910429D01*
X153752824Y-96726972D01*
X153783000Y-96536449D01*
X153783000Y-96343551D01*
X153752824Y-96153028D01*
X153693215Y-95969571D01*
X153634078Y-95853510D01*
X153621183Y-95784842D01*
X153645298Y-95722904D01*
X153675851Y-95682090D01*
X153726097Y-95547376D01*
X153726098Y-95547372D01*
X153732499Y-95487844D01*
X153732500Y-95487827D01*
X153732500Y-95440000D01*
X153571935Y-95440000D01*
X153549087Y-95433291D01*
X153525391Y-95430933D01*
X153516177Y-95423627D01*
X153504896Y-95420315D01*
X153489303Y-95402319D01*
X153470642Y-95387524D01*
X153466840Y-95376396D01*
X153459141Y-95367511D01*
X153455752Y-95343941D01*
X153448053Y-95321407D01*
X153450870Y-95309991D01*
X153449197Y-95298353D01*
X153459090Y-95276689D01*
X153464796Y-95253573D01*
X153474747Y-95242406D01*
X153478222Y-95234797D01*
X153486723Y-95225917D01*
X153491909Y-95221011D01*
X153590046Y-95147546D01*
X153639712Y-95081200D01*
X153647412Y-95073917D01*
X153669467Y-95062657D01*
X153689291Y-95047818D01*
X153703588Y-95045238D01*
X153709642Y-95042148D01*
X153716780Y-95042858D01*
X153732472Y-95040027D01*
X153732500Y-95040000D01*
X153732500Y-94992172D01*
X153732499Y-94992160D01*
X153725880Y-94930604D01*
X153725880Y-94904090D01*
X153726590Y-94897485D01*
X153726591Y-94897483D01*
X153733000Y-94837873D01*
X153732999Y-94342128D01*
X153726591Y-94282517D01*
X153726589Y-94282513D01*
X153726132Y-94278255D01*
X153726132Y-94251745D01*
X153726589Y-94247486D01*
X153726591Y-94247483D01*
X153731496Y-94201856D01*
X153758233Y-94137309D01*
X153815625Y-94097461D01*
X153885451Y-94094967D01*
X153942466Y-94127434D01*
X153979279Y-94164247D01*
X153979282Y-94164249D01*
X153979285Y-94164252D01*
X154006989Y-94182763D01*
X154102205Y-94246384D01*
X154102206Y-94246384D01*
X154102207Y-94246385D01*
X154158779Y-94269818D01*
X154158780Y-94269818D01*
X154238788Y-94302959D01*
X154354941Y-94326063D01*
X154374168Y-94329887D01*
X154383781Y-94331800D01*
X154383782Y-94331800D01*
X154383783Y-94331800D01*
X154531618Y-94331800D01*
X155260830Y-94331800D01*
X155327869Y-94351485D01*
X155329722Y-94352699D01*
X155369547Y-94379310D01*
X155369550Y-94379311D01*
X155369553Y-94379313D01*
X155533434Y-94447194D01*
X155533436Y-94447194D01*
X155533441Y-94447196D01*
X155707404Y-94481799D01*
X155707407Y-94481800D01*
X155707409Y-94481800D01*
X155884793Y-94481800D01*
X155884794Y-94481799D01*
X155942782Y-94470264D01*
X156058758Y-94447196D01*
X156058761Y-94447194D01*
X156058766Y-94447194D01*
X156222647Y-94379313D01*
X156370135Y-94280764D01*
X156495564Y-94155335D01*
X156594113Y-94007847D01*
X156661994Y-93843966D01*
X156662212Y-93842873D01*
X156696599Y-93669995D01*
X156696600Y-93669993D01*
X156696600Y-93492606D01*
X156696599Y-93492604D01*
X156661996Y-93318641D01*
X156661993Y-93318632D01*
X156594116Y-93154759D01*
X156594109Y-93154746D01*
X156495564Y-93007265D01*
X156495561Y-93007261D01*
X156370138Y-92881838D01*
X156370134Y-92881835D01*
X156222653Y-92783290D01*
X156222640Y-92783283D01*
X156058767Y-92715406D01*
X156058758Y-92715403D01*
X155884794Y-92680800D01*
X155884791Y-92680800D01*
X155707409Y-92680800D01*
X155707406Y-92680800D01*
X155533441Y-92715403D01*
X155533432Y-92715406D01*
X155369552Y-92783287D01*
X155369547Y-92783289D01*
X155329722Y-92809901D01*
X155263045Y-92830780D01*
X155260830Y-92830800D01*
X154819929Y-92830800D01*
X154752890Y-92811115D01*
X154732248Y-92794481D01*
X153784874Y-91847105D01*
X153751389Y-91785782D01*
X153751985Y-91730459D01*
X153752815Y-91726999D01*
X153752824Y-91726972D01*
X153783000Y-91536449D01*
X153783000Y-91343551D01*
X153752824Y-91153028D01*
X153693215Y-90969571D01*
X153605641Y-90797698D01*
X153492259Y-90641641D01*
X153355859Y-90505241D01*
X153199802Y-90391859D01*
X153182535Y-90383061D01*
X153027930Y-90304285D01*
X152844469Y-90244675D01*
X152687506Y-90219815D01*
X152653949Y-90214500D01*
X152461051Y-90214500D01*
X152427494Y-90219815D01*
X152270530Y-90244675D01*
X152087068Y-90304286D01*
X151915197Y-90391859D01*
X151828552Y-90454811D01*
X151759141Y-90505241D01*
X151759139Y-90505243D01*
X151759138Y-90505243D01*
X151622743Y-90641638D01*
X151622743Y-90641639D01*
X151622741Y-90641641D01*
X151601652Y-90670668D01*
X151532317Y-90766099D01*
X151507333Y-90785363D01*
X151483510Y-90806007D01*
X151479886Y-90806527D01*
X151476987Y-90808764D01*
X151445568Y-90811462D01*
X151414352Y-90815951D01*
X151411020Y-90814429D01*
X151407373Y-90814743D01*
X151379482Y-90800026D01*
X151350796Y-90786926D01*
X151348816Y-90783845D01*
X151345578Y-90782137D01*
X151330069Y-90754674D01*
X151313022Y-90728148D01*
X151312315Y-90723236D01*
X151311221Y-90721298D01*
X151307999Y-90693213D01*
X151307999Y-90532745D01*
X151308000Y-90532724D01*
X151308000Y-90353389D01*
X151300671Y-90307116D01*
X151282124Y-90190013D01*
X156890000Y-90190013D01*
X156890000Y-90240000D01*
X157865000Y-90240000D01*
X158365000Y-90240000D01*
X159339999Y-90240000D01*
X159339999Y-90190028D01*
X159339998Y-90190013D01*
X159329505Y-90087302D01*
X159274358Y-89920880D01*
X159274356Y-89920875D01*
X159182315Y-89771654D01*
X159058345Y-89647684D01*
X158909124Y-89555643D01*
X158909119Y-89555641D01*
X158742697Y-89500494D01*
X158742690Y-89500493D01*
X158639986Y-89490000D01*
X158365000Y-89490000D01*
X158365000Y-90240000D01*
X157865000Y-90240000D01*
X157865000Y-89490000D01*
X157590029Y-89490000D01*
X157590012Y-89490001D01*
X157487302Y-89500494D01*
X157320880Y-89555641D01*
X157320875Y-89555643D01*
X157171654Y-89647684D01*
X157047684Y-89771654D01*
X156955643Y-89920875D01*
X156955641Y-89920880D01*
X156900494Y-90087302D01*
X156900493Y-90087309D01*
X156890000Y-90190013D01*
X151282124Y-90190013D01*
X151280902Y-90182299D01*
X151227373Y-90017555D01*
X151148732Y-89863212D01*
X151046914Y-89723072D01*
X150924428Y-89600586D01*
X150784288Y-89498768D01*
X150640270Y-89425388D01*
X150629947Y-89420128D01*
X150629946Y-89420127D01*
X150629945Y-89420127D01*
X150465201Y-89366598D01*
X150465199Y-89366597D01*
X150465198Y-89366597D01*
X150333771Y-89345781D01*
X150294111Y-89339500D01*
X149420889Y-89339500D01*
X149381228Y-89345781D01*
X149249802Y-89366597D01*
X149085052Y-89420128D01*
X148930711Y-89498768D01*
X148852433Y-89555641D01*
X148790572Y-89600586D01*
X148790570Y-89600588D01*
X148790569Y-89600588D01*
X148668088Y-89723069D01*
X148668088Y-89723070D01*
X148668086Y-89723072D01*
X148632789Y-89771654D01*
X148566268Y-89863211D01*
X148487628Y-90017552D01*
X148434097Y-90182302D01*
X148407000Y-90353389D01*
X145913966Y-90353389D01*
X145913966Y-89037155D01*
X160675000Y-89037155D01*
X160675000Y-89285000D01*
X161675000Y-89285000D01*
X162175000Y-89285000D01*
X163175000Y-89285000D01*
X163175000Y-89037172D01*
X163174999Y-89037155D01*
X178175000Y-89037155D01*
X178175000Y-89285000D01*
X179175000Y-89285000D01*
X179675000Y-89285000D01*
X180675000Y-89285000D01*
X180675000Y-89037172D01*
X180674999Y-89037155D01*
X180668598Y-88977627D01*
X180668596Y-88977620D01*
X180618354Y-88842913D01*
X180618350Y-88842906D01*
X180532190Y-88727812D01*
X180532187Y-88727809D01*
X180417093Y-88641649D01*
X180417086Y-88641645D01*
X180282379Y-88591403D01*
X180282372Y-88591401D01*
X180222844Y-88585000D01*
X179675000Y-88585000D01*
X179675000Y-89285000D01*
X179175000Y-89285000D01*
X179175000Y-88585000D01*
X178627155Y-88585000D01*
X178567627Y-88591401D01*
X178567620Y-88591403D01*
X178432913Y-88641645D01*
X178432906Y-88641649D01*
X178317812Y-88727809D01*
X178317809Y-88727812D01*
X178231649Y-88842906D01*
X178231645Y-88842913D01*
X178181403Y-88977620D01*
X178181401Y-88977627D01*
X178175000Y-89037155D01*
X163174999Y-89037155D01*
X163168598Y-88977627D01*
X163168596Y-88977620D01*
X163118354Y-88842913D01*
X163118350Y-88842906D01*
X163032190Y-88727812D01*
X163032187Y-88727809D01*
X162917093Y-88641649D01*
X162917086Y-88641645D01*
X162782379Y-88591403D01*
X162782372Y-88591401D01*
X162722844Y-88585000D01*
X162175000Y-88585000D01*
X162175000Y-89285000D01*
X161675000Y-89285000D01*
X161675000Y-88585000D01*
X161127155Y-88585000D01*
X161067627Y-88591401D01*
X161067620Y-88591403D01*
X160932913Y-88641645D01*
X160932906Y-88641649D01*
X160817812Y-88727809D01*
X160817809Y-88727812D01*
X160731649Y-88842906D01*
X160731645Y-88842913D01*
X160681403Y-88977620D01*
X160681401Y-88977627D01*
X160675000Y-89037155D01*
X145913966Y-89037155D01*
X145913966Y-88389000D01*
X145933651Y-88321961D01*
X145986455Y-88276206D01*
X146037966Y-88265000D01*
X193877418Y-88265000D01*
X193944457Y-88284685D01*
G37*
%TD.AperFunction*%
%TD*%
M02*
