%TF.GenerationSoftware,KiCad,Pcbnew,9.0.5*%
%TF.CreationDate,2025-12-10T09:47:07-03:00*%
%TF.ProjectId,Estacao_I2C_v2,45737461-6361-46f5-9f49-32435f76322e,rev?*%
%TF.SameCoordinates,Original*%
%TF.FileFunction,Legend,Top*%
%TF.FilePolarity,Positive*%
%FSLAX46Y46*%
G04 Gerber Fmt 4.6, Leading zero omitted, Abs format (unit mm)*
G04 Created by KiCad (PCBNEW 9.0.5) date 2025-12-10 09:47:07*
%MOMM*%
%LPD*%
G01*
G04 APERTURE LIST*
%ADD10C,0.150000*%
%ADD11C,0.120000*%
G04 APERTURE END LIST*
D10*
X180006666Y-111849819D02*
X180006666Y-112564104D01*
X180006666Y-112564104D02*
X179959047Y-112706961D01*
X179959047Y-112706961D02*
X179863809Y-112802200D01*
X179863809Y-112802200D02*
X179720952Y-112849819D01*
X179720952Y-112849819D02*
X179625714Y-112849819D01*
X180387619Y-111849819D02*
X181006666Y-111849819D01*
X181006666Y-111849819D02*
X180673333Y-112230771D01*
X180673333Y-112230771D02*
X180816190Y-112230771D01*
X180816190Y-112230771D02*
X180911428Y-112278390D01*
X180911428Y-112278390D02*
X180959047Y-112326009D01*
X180959047Y-112326009D02*
X181006666Y-112421247D01*
X181006666Y-112421247D02*
X181006666Y-112659342D01*
X181006666Y-112659342D02*
X180959047Y-112754580D01*
X180959047Y-112754580D02*
X180911428Y-112802200D01*
X180911428Y-112802200D02*
X180816190Y-112849819D01*
X180816190Y-112849819D02*
X180530476Y-112849819D01*
X180530476Y-112849819D02*
X180435238Y-112802200D01*
X180435238Y-112802200D02*
X180387619Y-112754580D01*
X183411905Y-114604819D02*
X183411905Y-113604819D01*
X183411905Y-113604819D02*
X183650000Y-113604819D01*
X183650000Y-113604819D02*
X183792857Y-113652438D01*
X183792857Y-113652438D02*
X183888095Y-113747676D01*
X183888095Y-113747676D02*
X183935714Y-113842914D01*
X183935714Y-113842914D02*
X183983333Y-114033390D01*
X183983333Y-114033390D02*
X183983333Y-114176247D01*
X183983333Y-114176247D02*
X183935714Y-114366723D01*
X183935714Y-114366723D02*
X183888095Y-114461961D01*
X183888095Y-114461961D02*
X183792857Y-114557200D01*
X183792857Y-114557200D02*
X183650000Y-114604819D01*
X183650000Y-114604819D02*
X183411905Y-114604819D01*
X184935714Y-114604819D02*
X184364286Y-114604819D01*
X184650000Y-114604819D02*
X184650000Y-113604819D01*
X184650000Y-113604819D02*
X184554762Y-113747676D01*
X184554762Y-113747676D02*
X184459524Y-113842914D01*
X184459524Y-113842914D02*
X184364286Y-113890533D01*
X156794580Y-91606666D02*
X156842200Y-91654285D01*
X156842200Y-91654285D02*
X156889819Y-91797142D01*
X156889819Y-91797142D02*
X156889819Y-91892380D01*
X156889819Y-91892380D02*
X156842200Y-92035237D01*
X156842200Y-92035237D02*
X156746961Y-92130475D01*
X156746961Y-92130475D02*
X156651723Y-92178094D01*
X156651723Y-92178094D02*
X156461247Y-92225713D01*
X156461247Y-92225713D02*
X156318390Y-92225713D01*
X156318390Y-92225713D02*
X156127914Y-92178094D01*
X156127914Y-92178094D02*
X156032676Y-92130475D01*
X156032676Y-92130475D02*
X155937438Y-92035237D01*
X155937438Y-92035237D02*
X155889819Y-91892380D01*
X155889819Y-91892380D02*
X155889819Y-91797142D01*
X155889819Y-91797142D02*
X155937438Y-91654285D01*
X155937438Y-91654285D02*
X155985057Y-91606666D01*
X155985057Y-91225713D02*
X155937438Y-91178094D01*
X155937438Y-91178094D02*
X155889819Y-91082856D01*
X155889819Y-91082856D02*
X155889819Y-90844761D01*
X155889819Y-90844761D02*
X155937438Y-90749523D01*
X155937438Y-90749523D02*
X155985057Y-90701904D01*
X155985057Y-90701904D02*
X156080295Y-90654285D01*
X156080295Y-90654285D02*
X156175533Y-90654285D01*
X156175533Y-90654285D02*
X156318390Y-90701904D01*
X156318390Y-90701904D02*
X156889819Y-91273332D01*
X156889819Y-91273332D02*
X156889819Y-90654285D01*
X182435833Y-90244819D02*
X182102500Y-89768628D01*
X181864405Y-90244819D02*
X181864405Y-89244819D01*
X181864405Y-89244819D02*
X182245357Y-89244819D01*
X182245357Y-89244819D02*
X182340595Y-89292438D01*
X182340595Y-89292438D02*
X182388214Y-89340057D01*
X182388214Y-89340057D02*
X182435833Y-89435295D01*
X182435833Y-89435295D02*
X182435833Y-89578152D01*
X182435833Y-89578152D02*
X182388214Y-89673390D01*
X182388214Y-89673390D02*
X182340595Y-89721009D01*
X182340595Y-89721009D02*
X182245357Y-89768628D01*
X182245357Y-89768628D02*
X181864405Y-89768628D01*
X183292976Y-89578152D02*
X183292976Y-90244819D01*
X183054881Y-89197200D02*
X182816786Y-89911485D01*
X182816786Y-89911485D02*
X183435833Y-89911485D01*
X155714580Y-116631666D02*
X155762200Y-116679285D01*
X155762200Y-116679285D02*
X155809819Y-116822142D01*
X155809819Y-116822142D02*
X155809819Y-116917380D01*
X155809819Y-116917380D02*
X155762200Y-117060237D01*
X155762200Y-117060237D02*
X155666961Y-117155475D01*
X155666961Y-117155475D02*
X155571723Y-117203094D01*
X155571723Y-117203094D02*
X155381247Y-117250713D01*
X155381247Y-117250713D02*
X155238390Y-117250713D01*
X155238390Y-117250713D02*
X155047914Y-117203094D01*
X155047914Y-117203094D02*
X154952676Y-117155475D01*
X154952676Y-117155475D02*
X154857438Y-117060237D01*
X154857438Y-117060237D02*
X154809819Y-116917380D01*
X154809819Y-116917380D02*
X154809819Y-116822142D01*
X154809819Y-116822142D02*
X154857438Y-116679285D01*
X154857438Y-116679285D02*
X154905057Y-116631666D01*
X155143152Y-115774523D02*
X155809819Y-115774523D01*
X154762200Y-116012618D02*
X155476485Y-116250713D01*
X155476485Y-116250713D02*
X155476485Y-115631666D01*
X146084819Y-105511904D02*
X146894342Y-105511904D01*
X146894342Y-105511904D02*
X146989580Y-105464285D01*
X146989580Y-105464285D02*
X147037200Y-105416666D01*
X147037200Y-105416666D02*
X147084819Y-105321428D01*
X147084819Y-105321428D02*
X147084819Y-105130952D01*
X147084819Y-105130952D02*
X147037200Y-105035714D01*
X147037200Y-105035714D02*
X146989580Y-104988095D01*
X146989580Y-104988095D02*
X146894342Y-104940476D01*
X146894342Y-104940476D02*
X146084819Y-104940476D01*
X146180057Y-104511904D02*
X146132438Y-104464285D01*
X146132438Y-104464285D02*
X146084819Y-104369047D01*
X146084819Y-104369047D02*
X146084819Y-104130952D01*
X146084819Y-104130952D02*
X146132438Y-104035714D01*
X146132438Y-104035714D02*
X146180057Y-103988095D01*
X146180057Y-103988095D02*
X146275295Y-103940476D01*
X146275295Y-103940476D02*
X146370533Y-103940476D01*
X146370533Y-103940476D02*
X146513390Y-103988095D01*
X146513390Y-103988095D02*
X147084819Y-104559523D01*
X147084819Y-104559523D02*
X147084819Y-103940476D01*
X159519819Y-106976904D02*
X160329342Y-106976904D01*
X160329342Y-106976904D02*
X160424580Y-106929285D01*
X160424580Y-106929285D02*
X160472200Y-106881666D01*
X160472200Y-106881666D02*
X160519819Y-106786428D01*
X160519819Y-106786428D02*
X160519819Y-106595952D01*
X160519819Y-106595952D02*
X160472200Y-106500714D01*
X160472200Y-106500714D02*
X160424580Y-106453095D01*
X160424580Y-106453095D02*
X160329342Y-106405476D01*
X160329342Y-106405476D02*
X159519819Y-106405476D01*
X160519819Y-105405476D02*
X160519819Y-105976904D01*
X160519819Y-105691190D02*
X159519819Y-105691190D01*
X159519819Y-105691190D02*
X159662676Y-105786428D01*
X159662676Y-105786428D02*
X159757914Y-105881666D01*
X159757914Y-105881666D02*
X159805533Y-105976904D01*
X185253333Y-105229819D02*
X184920000Y-104753628D01*
X184681905Y-105229819D02*
X184681905Y-104229819D01*
X184681905Y-104229819D02*
X185062857Y-104229819D01*
X185062857Y-104229819D02*
X185158095Y-104277438D01*
X185158095Y-104277438D02*
X185205714Y-104325057D01*
X185205714Y-104325057D02*
X185253333Y-104420295D01*
X185253333Y-104420295D02*
X185253333Y-104563152D01*
X185253333Y-104563152D02*
X185205714Y-104658390D01*
X185205714Y-104658390D02*
X185158095Y-104706009D01*
X185158095Y-104706009D02*
X185062857Y-104753628D01*
X185062857Y-104753628D02*
X184681905Y-104753628D01*
X186110476Y-104229819D02*
X185920000Y-104229819D01*
X185920000Y-104229819D02*
X185824762Y-104277438D01*
X185824762Y-104277438D02*
X185777143Y-104325057D01*
X185777143Y-104325057D02*
X185681905Y-104467914D01*
X185681905Y-104467914D02*
X185634286Y-104658390D01*
X185634286Y-104658390D02*
X185634286Y-105039342D01*
X185634286Y-105039342D02*
X185681905Y-105134580D01*
X185681905Y-105134580D02*
X185729524Y-105182200D01*
X185729524Y-105182200D02*
X185824762Y-105229819D01*
X185824762Y-105229819D02*
X186015238Y-105229819D01*
X186015238Y-105229819D02*
X186110476Y-105182200D01*
X186110476Y-105182200D02*
X186158095Y-105134580D01*
X186158095Y-105134580D02*
X186205714Y-105039342D01*
X186205714Y-105039342D02*
X186205714Y-104801247D01*
X186205714Y-104801247D02*
X186158095Y-104706009D01*
X186158095Y-104706009D02*
X186110476Y-104658390D01*
X186110476Y-104658390D02*
X186015238Y-104610771D01*
X186015238Y-104610771D02*
X185824762Y-104610771D01*
X185824762Y-104610771D02*
X185729524Y-104658390D01*
X185729524Y-104658390D02*
X185681905Y-104706009D01*
X185681905Y-104706009D02*
X185634286Y-104801247D01*
X182435833Y-99894819D02*
X182102500Y-99418628D01*
X181864405Y-99894819D02*
X181864405Y-98894819D01*
X181864405Y-98894819D02*
X182245357Y-98894819D01*
X182245357Y-98894819D02*
X182340595Y-98942438D01*
X182340595Y-98942438D02*
X182388214Y-98990057D01*
X182388214Y-98990057D02*
X182435833Y-99085295D01*
X182435833Y-99085295D02*
X182435833Y-99228152D01*
X182435833Y-99228152D02*
X182388214Y-99323390D01*
X182388214Y-99323390D02*
X182340595Y-99371009D01*
X182340595Y-99371009D02*
X182245357Y-99418628D01*
X182245357Y-99418628D02*
X181864405Y-99418628D01*
X182769167Y-98894819D02*
X183388214Y-98894819D01*
X183388214Y-98894819D02*
X183054881Y-99275771D01*
X183054881Y-99275771D02*
X183197738Y-99275771D01*
X183197738Y-99275771D02*
X183292976Y-99323390D01*
X183292976Y-99323390D02*
X183340595Y-99371009D01*
X183340595Y-99371009D02*
X183388214Y-99466247D01*
X183388214Y-99466247D02*
X183388214Y-99704342D01*
X183388214Y-99704342D02*
X183340595Y-99799580D01*
X183340595Y-99799580D02*
X183292976Y-99847200D01*
X183292976Y-99847200D02*
X183197738Y-99894819D01*
X183197738Y-99894819D02*
X182912024Y-99894819D01*
X182912024Y-99894819D02*
X182816786Y-99847200D01*
X182816786Y-99847200D02*
X182769167Y-99799580D01*
X182435833Y-103069819D02*
X182102500Y-102593628D01*
X181864405Y-103069819D02*
X181864405Y-102069819D01*
X181864405Y-102069819D02*
X182245357Y-102069819D01*
X182245357Y-102069819D02*
X182340595Y-102117438D01*
X182340595Y-102117438D02*
X182388214Y-102165057D01*
X182388214Y-102165057D02*
X182435833Y-102260295D01*
X182435833Y-102260295D02*
X182435833Y-102403152D01*
X182435833Y-102403152D02*
X182388214Y-102498390D01*
X182388214Y-102498390D02*
X182340595Y-102546009D01*
X182340595Y-102546009D02*
X182245357Y-102593628D01*
X182245357Y-102593628D02*
X181864405Y-102593628D01*
X182816786Y-102165057D02*
X182864405Y-102117438D01*
X182864405Y-102117438D02*
X182959643Y-102069819D01*
X182959643Y-102069819D02*
X183197738Y-102069819D01*
X183197738Y-102069819D02*
X183292976Y-102117438D01*
X183292976Y-102117438D02*
X183340595Y-102165057D01*
X183340595Y-102165057D02*
X183388214Y-102260295D01*
X183388214Y-102260295D02*
X183388214Y-102355533D01*
X183388214Y-102355533D02*
X183340595Y-102498390D01*
X183340595Y-102498390D02*
X182769167Y-103069819D01*
X182769167Y-103069819D02*
X183388214Y-103069819D01*
X185253333Y-95069819D02*
X184920000Y-94593628D01*
X184681905Y-95069819D02*
X184681905Y-94069819D01*
X184681905Y-94069819D02*
X185062857Y-94069819D01*
X185062857Y-94069819D02*
X185158095Y-94117438D01*
X185158095Y-94117438D02*
X185205714Y-94165057D01*
X185205714Y-94165057D02*
X185253333Y-94260295D01*
X185253333Y-94260295D02*
X185253333Y-94403152D01*
X185253333Y-94403152D02*
X185205714Y-94498390D01*
X185205714Y-94498390D02*
X185158095Y-94546009D01*
X185158095Y-94546009D02*
X185062857Y-94593628D01*
X185062857Y-94593628D02*
X184681905Y-94593628D01*
X186158095Y-94069819D02*
X185681905Y-94069819D01*
X185681905Y-94069819D02*
X185634286Y-94546009D01*
X185634286Y-94546009D02*
X185681905Y-94498390D01*
X185681905Y-94498390D02*
X185777143Y-94450771D01*
X185777143Y-94450771D02*
X186015238Y-94450771D01*
X186015238Y-94450771D02*
X186110476Y-94498390D01*
X186110476Y-94498390D02*
X186158095Y-94546009D01*
X186158095Y-94546009D02*
X186205714Y-94641247D01*
X186205714Y-94641247D02*
X186205714Y-94879342D01*
X186205714Y-94879342D02*
X186158095Y-94974580D01*
X186158095Y-94974580D02*
X186110476Y-95022200D01*
X186110476Y-95022200D02*
X186015238Y-95069819D01*
X186015238Y-95069819D02*
X185777143Y-95069819D01*
X185777143Y-95069819D02*
X185681905Y-95022200D01*
X185681905Y-95022200D02*
X185634286Y-94974580D01*
X160591667Y-123597200D02*
X160734524Y-123644819D01*
X160734524Y-123644819D02*
X160972619Y-123644819D01*
X160972619Y-123644819D02*
X161067857Y-123597200D01*
X161067857Y-123597200D02*
X161115476Y-123549580D01*
X161115476Y-123549580D02*
X161163095Y-123454342D01*
X161163095Y-123454342D02*
X161163095Y-123359104D01*
X161163095Y-123359104D02*
X161115476Y-123263866D01*
X161115476Y-123263866D02*
X161067857Y-123216247D01*
X161067857Y-123216247D02*
X160972619Y-123168628D01*
X160972619Y-123168628D02*
X160782143Y-123121009D01*
X160782143Y-123121009D02*
X160686905Y-123073390D01*
X160686905Y-123073390D02*
X160639286Y-123025771D01*
X160639286Y-123025771D02*
X160591667Y-122930533D01*
X160591667Y-122930533D02*
X160591667Y-122835295D01*
X160591667Y-122835295D02*
X160639286Y-122740057D01*
X160639286Y-122740057D02*
X160686905Y-122692438D01*
X160686905Y-122692438D02*
X160782143Y-122644819D01*
X160782143Y-122644819D02*
X161020238Y-122644819D01*
X161020238Y-122644819D02*
X161163095Y-122692438D01*
X161496429Y-122644819D02*
X161734524Y-123644819D01*
X161734524Y-123644819D02*
X161925000Y-122930533D01*
X161925000Y-122930533D02*
X162115476Y-123644819D01*
X162115476Y-123644819D02*
X162353572Y-122644819D01*
X163258333Y-123644819D02*
X162686905Y-123644819D01*
X162972619Y-123644819D02*
X162972619Y-122644819D01*
X162972619Y-122644819D02*
X162877381Y-122787676D01*
X162877381Y-122787676D02*
X162782143Y-122882914D01*
X162782143Y-122882914D02*
X162686905Y-122930533D01*
X160789580Y-104306666D02*
X160837200Y-104354285D01*
X160837200Y-104354285D02*
X160884819Y-104497142D01*
X160884819Y-104497142D02*
X160884819Y-104592380D01*
X160884819Y-104592380D02*
X160837200Y-104735237D01*
X160837200Y-104735237D02*
X160741961Y-104830475D01*
X160741961Y-104830475D02*
X160646723Y-104878094D01*
X160646723Y-104878094D02*
X160456247Y-104925713D01*
X160456247Y-104925713D02*
X160313390Y-104925713D01*
X160313390Y-104925713D02*
X160122914Y-104878094D01*
X160122914Y-104878094D02*
X160027676Y-104830475D01*
X160027676Y-104830475D02*
X159932438Y-104735237D01*
X159932438Y-104735237D02*
X159884819Y-104592380D01*
X159884819Y-104592380D02*
X159884819Y-104497142D01*
X159884819Y-104497142D02*
X159932438Y-104354285D01*
X159932438Y-104354285D02*
X159980057Y-104306666D01*
X160884819Y-103354285D02*
X160884819Y-103925713D01*
X160884819Y-103639999D02*
X159884819Y-103639999D01*
X159884819Y-103639999D02*
X160027676Y-103735237D01*
X160027676Y-103735237D02*
X160122914Y-103830475D01*
X160122914Y-103830475D02*
X160170533Y-103925713D01*
X153662319Y-94273333D02*
X154376604Y-94273333D01*
X154376604Y-94273333D02*
X154519461Y-94320952D01*
X154519461Y-94320952D02*
X154614700Y-94416190D01*
X154614700Y-94416190D02*
X154662319Y-94559047D01*
X154662319Y-94559047D02*
X154662319Y-94654285D01*
X154662319Y-93273333D02*
X154662319Y-93844761D01*
X154662319Y-93559047D02*
X153662319Y-93559047D01*
X153662319Y-93559047D02*
X153805176Y-93654285D01*
X153805176Y-93654285D02*
X153900414Y-93749523D01*
X153900414Y-93749523D02*
X153948033Y-93844761D01*
X170116667Y-123597200D02*
X170259524Y-123644819D01*
X170259524Y-123644819D02*
X170497619Y-123644819D01*
X170497619Y-123644819D02*
X170592857Y-123597200D01*
X170592857Y-123597200D02*
X170640476Y-123549580D01*
X170640476Y-123549580D02*
X170688095Y-123454342D01*
X170688095Y-123454342D02*
X170688095Y-123359104D01*
X170688095Y-123359104D02*
X170640476Y-123263866D01*
X170640476Y-123263866D02*
X170592857Y-123216247D01*
X170592857Y-123216247D02*
X170497619Y-123168628D01*
X170497619Y-123168628D02*
X170307143Y-123121009D01*
X170307143Y-123121009D02*
X170211905Y-123073390D01*
X170211905Y-123073390D02*
X170164286Y-123025771D01*
X170164286Y-123025771D02*
X170116667Y-122930533D01*
X170116667Y-122930533D02*
X170116667Y-122835295D01*
X170116667Y-122835295D02*
X170164286Y-122740057D01*
X170164286Y-122740057D02*
X170211905Y-122692438D01*
X170211905Y-122692438D02*
X170307143Y-122644819D01*
X170307143Y-122644819D02*
X170545238Y-122644819D01*
X170545238Y-122644819D02*
X170688095Y-122692438D01*
X171021429Y-122644819D02*
X171259524Y-123644819D01*
X171259524Y-123644819D02*
X171450000Y-122930533D01*
X171450000Y-122930533D02*
X171640476Y-123644819D01*
X171640476Y-123644819D02*
X171878572Y-122644819D01*
X172211905Y-122740057D02*
X172259524Y-122692438D01*
X172259524Y-122692438D02*
X172354762Y-122644819D01*
X172354762Y-122644819D02*
X172592857Y-122644819D01*
X172592857Y-122644819D02*
X172688095Y-122692438D01*
X172688095Y-122692438D02*
X172735714Y-122740057D01*
X172735714Y-122740057D02*
X172783333Y-122835295D01*
X172783333Y-122835295D02*
X172783333Y-122930533D01*
X172783333Y-122930533D02*
X172735714Y-123073390D01*
X172735714Y-123073390D02*
X172164286Y-123644819D01*
X172164286Y-123644819D02*
X172783333Y-123644819D01*
X190166666Y-110104819D02*
X190166666Y-110819104D01*
X190166666Y-110819104D02*
X190119047Y-110961961D01*
X190119047Y-110961961D02*
X190023809Y-111057200D01*
X190023809Y-111057200D02*
X189880952Y-111104819D01*
X189880952Y-111104819D02*
X189785714Y-111104819D01*
X191071428Y-110438152D02*
X191071428Y-111104819D01*
X190833333Y-110057200D02*
X190595238Y-110771485D01*
X190595238Y-110771485D02*
X191214285Y-110771485D01*
X158583333Y-94689819D02*
X158250000Y-94213628D01*
X158011905Y-94689819D02*
X158011905Y-93689819D01*
X158011905Y-93689819D02*
X158392857Y-93689819D01*
X158392857Y-93689819D02*
X158488095Y-93737438D01*
X158488095Y-93737438D02*
X158535714Y-93785057D01*
X158535714Y-93785057D02*
X158583333Y-93880295D01*
X158583333Y-93880295D02*
X158583333Y-94023152D01*
X158583333Y-94023152D02*
X158535714Y-94118390D01*
X158535714Y-94118390D02*
X158488095Y-94166009D01*
X158488095Y-94166009D02*
X158392857Y-94213628D01*
X158392857Y-94213628D02*
X158011905Y-94213628D01*
X159535714Y-94689819D02*
X158964286Y-94689819D01*
X159250000Y-94689819D02*
X159250000Y-93689819D01*
X159250000Y-93689819D02*
X159154762Y-93832676D01*
X159154762Y-93832676D02*
X159059524Y-93927914D01*
X159059524Y-93927914D02*
X158964286Y-93975533D01*
X190166666Y-108514819D02*
X190166666Y-109229104D01*
X190166666Y-109229104D02*
X190119047Y-109371961D01*
X190119047Y-109371961D02*
X190023809Y-109467200D01*
X190023809Y-109467200D02*
X189880952Y-109514819D01*
X189880952Y-109514819D02*
X189785714Y-109514819D01*
X190595238Y-108610057D02*
X190642857Y-108562438D01*
X190642857Y-108562438D02*
X190738095Y-108514819D01*
X190738095Y-108514819D02*
X190976190Y-108514819D01*
X190976190Y-108514819D02*
X191071428Y-108562438D01*
X191071428Y-108562438D02*
X191119047Y-108610057D01*
X191119047Y-108610057D02*
X191166666Y-108705295D01*
X191166666Y-108705295D02*
X191166666Y-108800533D01*
X191166666Y-108800533D02*
X191119047Y-108943390D01*
X191119047Y-108943390D02*
X190547619Y-109514819D01*
X190547619Y-109514819D02*
X191166666Y-109514819D01*
D11*
%TO.C,J3*%
X176420000Y-111650000D02*
X177800000Y-111650000D01*
X176420000Y-113030000D02*
X176420000Y-111650000D01*
X176420000Y-114300000D02*
X176420000Y-122030000D01*
X176420000Y-114300000D02*
X179180000Y-114300000D01*
X176420000Y-122030000D02*
X179180000Y-122030000D01*
X179180000Y-114300000D02*
X179180000Y-122030000D01*
%TO.C,D1*%
X181590000Y-116565000D02*
X181590000Y-117030000D01*
X181590000Y-119190000D02*
X181590000Y-119655000D01*
X181590000Y-116565170D02*
G75*
G02*
X186938136Y-117030000I2560000J-1544830D01*
G01*
X181895316Y-117030000D02*
G75*
G02*
X186404684Y-117030000I2254684J-1080000D01*
G01*
X186404684Y-119190000D02*
G75*
G02*
X181895316Y-119190000I-2254684J1080000D01*
G01*
X186938136Y-119190000D02*
G75*
G02*
X181590000Y-119654830I-2788136J1080000D01*
G01*
%TO.C,C2*%
X157380000Y-91701252D02*
X157380000Y-91178748D01*
X158850000Y-91701252D02*
X158850000Y-91178748D01*
%TO.C,R4*%
X182375436Y-90705000D02*
X182829564Y-90705000D01*
X182375436Y-92175000D02*
X182829564Y-92175000D01*
%TO.C,C4*%
X147595000Y-114119437D02*
X147595000Y-119875000D01*
X147595000Y-119875000D02*
X149945000Y-119875000D01*
X148659437Y-113055000D02*
X147595000Y-114119437D01*
X148659437Y-113055000D02*
X149945000Y-113055000D01*
X152852500Y-112027500D02*
X152852500Y-112815000D01*
X153246250Y-112421250D02*
X152458750Y-112421250D01*
X153350563Y-113055000D02*
X152065000Y-113055000D01*
X153350563Y-113055000D02*
X154415000Y-114119437D01*
X154415000Y-114119437D02*
X154415000Y-119875000D01*
X154415000Y-119875000D02*
X152065000Y-119875000D01*
%TO.C,U2*%
X147720000Y-102840000D02*
X148980000Y-102840000D01*
X147720000Y-106600000D02*
X147720000Y-102840000D01*
X154540000Y-102840000D02*
X153280000Y-102840000D01*
X154540000Y-106600000D02*
X154540000Y-102840000D01*
X147820000Y-107880000D02*
X147490000Y-108120000D01*
X147490000Y-107640000D01*
X147820000Y-107880000D01*
G36*
X147820000Y-107880000D02*
G01*
X147490000Y-108120000D01*
X147490000Y-107640000D01*
X147820000Y-107880000D01*
G37*
%TO.C,U1*%
X161555000Y-81925000D02*
X161555000Y-88085000D01*
X161555000Y-81925000D02*
X179795000Y-81925000D01*
X161555000Y-106885000D02*
X161555000Y-107665000D01*
X161555000Y-107665000D02*
X162555000Y-107665000D01*
X179795000Y-81925000D02*
X179795000Y-88340000D01*
X179795000Y-106885000D02*
X179795000Y-107665000D01*
X179795000Y-107665000D02*
X178795000Y-107665000D01*
X161550000Y-88810000D02*
X161050000Y-88810000D01*
X161550000Y-88310000D01*
X161550000Y-88810000D01*
G36*
X161550000Y-88810000D02*
G01*
X161050000Y-88810000D01*
X161550000Y-88310000D01*
X161550000Y-88810000D01*
G37*
%TO.C,R6*%
X182375436Y-104040000D02*
X182829564Y-104040000D01*
X182375436Y-105510000D02*
X182829564Y-105510000D01*
%TO.C,R3*%
X182829564Y-97055000D02*
X182375436Y-97055000D01*
X182829564Y-98525000D02*
X182375436Y-98525000D01*
%TO.C,R2*%
X182829564Y-100230000D02*
X182375436Y-100230000D01*
X182829564Y-101700000D02*
X182375436Y-101700000D01*
%TO.C,R5*%
X182375436Y-93880000D02*
X182829564Y-93880000D01*
X182375436Y-95350000D02*
X182829564Y-95350000D01*
%TO.C,SW1*%
X158965000Y-114665000D02*
X158965000Y-119165000D01*
X161465000Y-120415000D02*
X162965000Y-120415000D01*
X162965000Y-113415000D02*
X161465000Y-113415000D01*
X165465000Y-119165000D02*
X165465000Y-114665000D01*
%TO.C,C1*%
X158015000Y-103878748D02*
X158015000Y-104401252D01*
X159485000Y-103878748D02*
X159485000Y-104401252D01*
%TO.C,J1*%
X148457500Y-90040000D02*
X148707500Y-90040000D01*
X148457500Y-97840000D02*
X148707500Y-97840000D01*
X151007500Y-90040000D02*
X152857500Y-90040000D01*
X151007500Y-97840000D02*
X152857500Y-97840000D01*
X152857500Y-90040000D02*
X152857500Y-90490000D01*
X152857500Y-97840000D02*
X152857500Y-97390000D01*
X153407500Y-92240000D02*
X152957500Y-92240000D01*
X153407500Y-92240000D02*
X153407500Y-92690000D01*
%TO.C,SW2*%
X167855000Y-114665000D02*
X167855000Y-119165000D01*
X170355000Y-120415000D02*
X171855000Y-120415000D01*
X171855000Y-113415000D02*
X170355000Y-113415000D01*
X174355000Y-119165000D02*
X174355000Y-114665000D01*
%TO.C,J4*%
X189120000Y-111650000D02*
X190500000Y-111650000D01*
X189120000Y-113030000D02*
X189120000Y-111650000D01*
X189120000Y-114300000D02*
X189120000Y-122030000D01*
X189120000Y-114300000D02*
X191880000Y-114300000D01*
X189120000Y-122030000D02*
X191880000Y-122030000D01*
X191880000Y-114300000D02*
X191880000Y-122030000D01*
%TO.C,R1*%
X158522936Y-95150000D02*
X158977064Y-95150000D01*
X158522936Y-96620000D02*
X158977064Y-96620000D01*
%TO.C,J2*%
X189120000Y-105410000D02*
X189120000Y-92600000D01*
X191880000Y-92600000D02*
X189120000Y-92600000D01*
X191880000Y-105410000D02*
X189120000Y-105410000D01*
X191880000Y-105410000D02*
X191880000Y-92600000D01*
X191880000Y-106680000D02*
X191880000Y-108060000D01*
X191880000Y-108060000D02*
X190500000Y-108060000D01*
%TD*%
M02*
