M48
; DRILL file {KiCad 9.0.5} date 2025-12-10T15:39:27-0300
; FORMAT={-:-/ absolute / metric / decimal}
; #@! TF.CreationDate,2025-12-10T15:39:27-03:00
; #@! TF.GenerationSoftware,Kicad,Pcbnew,9.0.5
; #@! TF.FileFunction,Plated,1,2,PTH
FMAT,2
METRIC
; #@! TA.AperFunction,Plated,PTH,ComponentDrill
T1C0.200
; #@! TA.AperFunction,Plated,PTH,ViaDrill
T2C0.300
; #@! TA.AperFunction,Plated,PTH,ViaDrill
T3C0.400
; #@! TA.AperFunction,Plated,PTH,ComponentDrill
T4C0.600
; #@! TA.AperFunction,Plated,PTH,ComponentDrill
T5C0.850
; #@! TA.AperFunction,Plated,PTH,ComponentDrill
T6C0.900
; #@! TA.AperFunction,Plated,PTH,ComponentDrill
T7C1.000
; #@! TA.AperFunction,Plated,PTH,ComponentDrill
T8C1.100
%
G90
G05
T1
X167.775Y-96.555
X167.775Y-97.955
X168.475Y-95.855
X168.475Y-97.255
X168.475Y-98.655
X169.15Y-96.555
X169.15Y-97.955
X169.875Y-95.855
X169.875Y-97.255
X169.875Y-98.655
X170.575Y-96.555
X170.575Y-97.955
T2
X163.599Y-108.903
X164.377Y-91.153
X164.377Y-93.581
X175.909Y-104.429
X177.002Y-99.856
X177.002Y-102.665
X177.801Y-93.98
X180.778Y-98.935
X181.644Y-89.98
X181.644Y-93.027
X182.612Y-95.489
X184.785Y-106.755
X184.929Y-95.526
T3
X155.796Y-93.581
X158.656Y-101.862
X165.38Y-112.394
X165.684Y-105.517
T5
X152.558Y-91.44
X152.558Y-96.44
T6
X182.245Y-118.11
X183.515Y-118.11
X184.785Y-118.11
X186.055Y-118.11
T7
X177.8Y-113.03
X177.8Y-115.57
X177.8Y-118.11
X177.8Y-120.65
X190.5Y-93.98
X190.5Y-96.52
X190.5Y-99.06
X190.5Y-101.6
X190.5Y-104.14
X190.5Y-106.68
X190.5Y-113.03
X190.5Y-115.57
X190.5Y-118.11
X190.5Y-120.65
T8
X159.965Y-113.665
X159.965Y-120.165
X164.465Y-113.665
X164.465Y-120.165
X168.855Y-113.665
X168.855Y-120.165
X173.355Y-113.665
X173.355Y-120.165
T4
G00X149.507Y-90.44
M15
G01X150.207Y-90.44
M16
G05
G00X150.207Y-97.44
M15
G01X149.507Y-97.44
M16
G05
M30
