%TF.GenerationSoftware,KiCad,Pcbnew,9.0.5*%
%TF.CreationDate,2025-12-10T09:47:07-03:00*%
%TF.ProjectId,Estacao_I2C_v2,45737461-6361-46f5-9f49-32435f76322e,rev?*%
%TF.SameCoordinates,Original*%
%TF.FileFunction,Paste,Top*%
%TF.FilePolarity,Positive*%
%FSLAX46Y46*%
G04 Gerber Fmt 4.6, Leading zero omitted, Abs format (unit mm)*
G04 Created by KiCad (PCBNEW 9.0.5) date 2025-12-10 09:47:07*
%MOMM*%
%LPD*%
G01*
G04 APERTURE LIST*
G04 Aperture macros list*
%AMRoundRect*
0 Rectangle with rounded corners*
0 $1 Rounding radius*
0 $2 $3 $4 $5 $6 $7 $8 $9 X,Y pos of 4 corners*
0 Add a 4 corners polygon primitive as box body*
4,1,4,$2,$3,$4,$5,$6,$7,$8,$9,$2,$3,0*
0 Add four circle primitives for the rounded corners*
1,1,$1+$1,$2,$3*
1,1,$1+$1,$4,$5*
1,1,$1+$1,$6,$7*
1,1,$1+$1,$8,$9*
0 Add four rect primitives between the rounded corners*
20,1,$1+$1,$2,$3,$4,$5,0*
20,1,$1+$1,$4,$5,$6,$7,0*
20,1,$1+$1,$6,$7,$8,$9,0*
20,1,$1+$1,$8,$9,$2,$3,0*%
G04 Aperture macros list end*
%ADD10RoundRect,0.250000X0.475000X-0.250000X0.475000X0.250000X-0.475000X0.250000X-0.475000X-0.250000X0*%
%ADD11RoundRect,0.250000X-0.262500X-0.450000X0.262500X-0.450000X0.262500X0.450000X-0.262500X0.450000X0*%
%ADD12RoundRect,0.250000X-0.550000X1.500000X-0.550000X-1.500000X0.550000X-1.500000X0.550000X1.500000X0*%
%ADD13RoundRect,0.375000X0.375000X-0.625000X0.375000X0.625000X-0.375000X0.625000X-0.375000X-0.625000X0*%
%ADD14RoundRect,0.500000X1.400000X-0.500000X1.400000X0.500000X-1.400000X0.500000X-1.400000X-0.500000X0*%
%ADD15R,1.500000X0.900000*%
%ADD16R,0.900000X1.500000*%
%ADD17R,0.900000X0.900000*%
%ADD18RoundRect,0.250000X0.262500X0.450000X-0.262500X0.450000X-0.262500X-0.450000X0.262500X-0.450000X0*%
%ADD19RoundRect,0.250000X-0.475000X0.250000X-0.475000X-0.250000X0.475000X-0.250000X0.475000X0.250000X0*%
%ADD20R,1.350000X0.400000*%
%ADD21R,1.900000X1.500000*%
G04 APERTURE END LIST*
D10*
%TO.C,C2*%
X158115000Y-92390000D03*
X158115000Y-90490000D03*
%TD*%
D11*
%TO.C,R4*%
X181690000Y-91440000D03*
X183515000Y-91440000D03*
%TD*%
D12*
%TO.C,C4*%
X151005000Y-113665000D03*
X151005000Y-119265000D03*
%TD*%
D13*
%TO.C,U2*%
X148830000Y-107900000D03*
X151130000Y-107900000D03*
D14*
X151130000Y-101600000D03*
D13*
X153430000Y-107900000D03*
%TD*%
D15*
%TO.C,U1*%
X161925000Y-89535000D03*
X161925000Y-90805000D03*
X161925000Y-92075000D03*
X161925000Y-93345000D03*
X161925000Y-94615000D03*
X161925000Y-95885000D03*
X161925000Y-97155000D03*
X161925000Y-98425000D03*
X161925000Y-99695000D03*
X161925000Y-100965000D03*
X161925000Y-102235000D03*
X161925000Y-103505000D03*
X161925000Y-104775000D03*
X161925000Y-106045000D03*
D16*
X164965000Y-107295000D03*
X166235000Y-107295000D03*
X167505000Y-107295000D03*
X168775000Y-107295000D03*
X170045000Y-107295000D03*
X171315000Y-107295000D03*
X172585000Y-107295000D03*
X173855000Y-107295000D03*
X175125000Y-107295000D03*
X176395000Y-107295000D03*
D15*
X179425000Y-106045000D03*
X179425000Y-104775000D03*
X179425000Y-103505000D03*
X179425000Y-102235000D03*
X179425000Y-100965000D03*
X179425000Y-99695000D03*
X179425000Y-98425000D03*
X179425000Y-97155000D03*
X179425000Y-95885000D03*
X179425000Y-94615000D03*
X179425000Y-93345000D03*
X179425000Y-92075000D03*
X179425000Y-90805000D03*
X179425000Y-89535000D03*
D17*
X167775000Y-95855000D03*
X167775000Y-97255000D03*
X167775000Y-98655000D03*
X169175000Y-95855000D03*
X169175000Y-97255000D03*
X169175000Y-98655000D03*
X170575000Y-95855000D03*
X170575000Y-97255000D03*
X170575000Y-98655000D03*
%TD*%
D11*
%TO.C,R6*%
X181690000Y-104775000D03*
X183515000Y-104775000D03*
%TD*%
D18*
%TO.C,R3*%
X183515000Y-97790000D03*
X181690000Y-97790000D03*
%TD*%
%TO.C,R2*%
X183515000Y-100965000D03*
X181690000Y-100965000D03*
%TD*%
D11*
%TO.C,R5*%
X181690000Y-94615000D03*
X183515000Y-94615000D03*
%TD*%
D19*
%TO.C,C1*%
X158750000Y-103190000D03*
X158750000Y-105090000D03*
%TD*%
D20*
%TO.C,J1*%
X152557500Y-92640000D03*
X152557500Y-93290000D03*
X152557500Y-93940000D03*
X152557500Y-94590000D03*
X152557500Y-95240000D03*
D21*
X149857500Y-92940000D03*
X149857500Y-94940000D03*
%TD*%
D11*
%TO.C,R1*%
X157837500Y-95885000D03*
X159662500Y-95885000D03*
%TD*%
M02*
